<?xml version="1.0" encoding="UTF-8"?>
<svg id="Layer_1" data-name="Layer 1" xmlns="http://www.w3.org/2000/svg" viewBox="0 0 100 100">
  <defs>
    <style>
      .cls-1 {
        fill: #7d8698;
      }
    </style>
  </defs>
  <circle class="cls-1" cx="32.96" cy="44.11" r="4.26"/>
  <circle class="cls-1" cx="50" cy="44.11" r="4.26"/>
  <circle class="cls-1" cx="67.04" cy="44.11" r="4.26"/>
  <path class="cls-1" d="M81.21,21.86l-2.66,1.78h0l2.66-1.78ZM81.21,66.36l-2.66-1.78h0l2.66,1.78ZM76.51,71.06l-1.78-2.66h0l1.78,2.66ZM58.52,73.93v-3.2c-1.77,0-3.2,1.44-3.2,3.2h3.2ZM58.52,73.93l2.86,1.43c.22-.44.34-.93.34-1.43h-3.2ZM41.48,73.93h-3.2c0,.5.12.99.34,1.43l2.86-1.43ZM41.48,73.93h3.2c0-1.76-1.42-3.19-3.18-3.2v3.2ZM23.49,71.06l1.78-2.66h0l-1.78,2.66ZM18.79,66.36l2.66-1.78h0l-2.66,1.78ZM18.79,21.86l2.66,1.78-2.66-1.78ZM23.49,17.16l1.78,2.66-1.78-2.66ZM76.51,17.16l-1.78,2.66h0l1.78-2.66ZM87.28,44.11c0-5.92,0-10.6-.38-14.32-.38-3.78-1.19-6.94-3.04-9.7l-5.31,3.55c1.03,1.54,1.66,3.52,1.99,6.8.34,3.33.34,7.63.34,13.68h6.39ZM83.87,68.14c1.85-2.76,2.65-5.92,3.04-9.7.38-3.73.38-8.41.38-14.32h-6.39c0,6.05,0,10.35-.34,13.68-.33,3.28-.96,5.26-1.99,6.8l5.31,3.55ZM78.28,73.72c2.21-1.48,4.11-3.37,5.58-5.58l-5.31-3.55c-1.01,1.51-2.31,2.81-3.82,3.82l3.55,5.31ZM58.53,77.12c4.58-.02,8.34-.11,11.46-.54,3.17-.44,5.88-1.26,8.29-2.87l-3.55-5.31c-1.34.9-3.03,1.49-5.62,1.85-2.64.37-6,.46-10.61.48l.03,6.39ZM61.72,73.93h0s-6.39,0-6.39,0h0s6.39,0,6.39,0ZM56.67,84.78l4.71-9.42-5.72-2.86-4.71,9.42,5.72,2.86ZM43.33,84.78c2.75,5.49,10.59,5.49,13.34,0l-5.72-2.86c-.39.79-1.51.79-1.91,0l-5.72,2.86ZM38.62,75.36l4.71,9.42,5.72-2.86-4.71-9.42-5.72,2.86ZM38.28,73.93h0s6.39,0,6.39,0h0s-6.39,0-6.39,0ZM21.72,73.72c2.41,1.61,5.12,2.43,8.29,2.87,3.12.43,6.88.52,11.46.54l.03-6.39c-4.61-.02-7.97-.11-10.61-.48-2.59-.36-4.27-.95-5.62-1.85l-3.55,5.31ZM16.13,68.14c1.48,2.21,3.37,4.11,5.58,5.58l3.55-5.31c-1.51-1.01-2.81-2.31-3.82-3.82l-5.31,3.55ZM12.72,44.11c0,5.92,0,10.6.38,14.32.38,3.78,1.19,6.94,3.04,9.7l5.31-3.55c-1.03-1.54-1.66-3.52-1.99-6.8-.34-3.33-.34-7.63-.34-13.68h-6.39ZM16.13,20.09c-1.85,2.76-2.65,5.92-3.04,9.7-.38,3.73-.38,8.41-.38,14.32h6.39c0-6.05,0-10.35.34-13.68.33-3.28.96-5.26,1.99-6.8l-5.31-3.55ZM21.72,14.51c-2.21,1.48-4.11,3.37-5.58,5.58l5.31,3.55c1.01-1.51,2.31-2.81,3.82-3.82l-3.55-5.31ZM45.74,11.09c-5.92,0-10.6,0-14.32.38-3.78.38-6.94,1.19-9.7,3.04l3.55,5.31c1.54-1.03,3.52-1.66,6.8-1.99,3.33-.34,7.63-.34,13.68-.34v-6.39ZM54.26,11.09h-8.52v6.39h8.52v-6.39ZM78.28,14.51c-2.76-1.85-5.92-2.65-9.7-3.04-3.73-.38-8.41-.38-14.32-.38v6.39c6.05,0,10.35,0,13.68.34,3.28.33,5.26.96,6.8,1.99l3.55-5.31ZM83.87,20.09c-1.48-2.21-3.37-4.11-5.58-5.58l-3.55,5.31c1.51,1.01,2.81,2.31,3.82,3.82l5.31-3.55Z"/>
</svg>