<?xml version="1.0" encoding="UTF-8"?>
<svg id="Layer_1" data-name="Layer 1" xmlns="http://www.w3.org/2000/svg" viewBox="0 0 100 100">
  <defs>
    <style>
      .cls-1, .cls-2 {
        fill: #7d8698;
      }

      .cls-2 {
        fill-rule: evenodd;
      }
    </style>
  </defs>
  <path class="cls-2" d="M85.6,61.11c.34-3.3.34-7.43.34-12.65v-10.76c0-3.99,0-6.57-.69-9-.38-1.34-.91-2.62-1.59-3.84-1.23-2.21-3.05-4.03-5.88-6.86l-.59-.59c-2.82-2.82-4.64-4.64-6.86-5.88-1.21-.68-2.5-1.21-3.84-1.59-2.44-.69-5.01-.69-9-.69h-4.88c-3.56.03-6.56.11-9.09.38-3.6.39-6.59,1.21-9.16,3.08-1.54,1.12-2.89,2.47-4,4-1.19,1.64-1.95,3.44-2.45,5.47l-3.12.84c-9.65,2.59-15.38,12.51-12.8,22.16l8.38,31.28c2.59,9.65,12.51,15.38,22.16,12.8l22.08-5.92c4.22-1.13,7.69-3.66,10.04-6.96,1.16-.4,2.24-.93,3.26-1.61,1.98-1.32,3.67-3.02,4.99-4.99,1.65-2.47,2.37-5.29,2.71-8.67ZM57.52,14.97h-.47c-5.72,0-9.79,0-12.94.35-3.11.34-4.98.98-6.42,2.02-1.05.76-1.98,1.69-2.74,2.74-1.04,1.43-1.68,3.3-2.02,6.42-.34,3.17-.35,7.27-.35,13.05v8.76c0,5.41,0,9.25.31,12.23.3,2.93.86,4.7,1.78,6.08.9,1.35,2.06,2.51,3.42,3.42,1.37.92,3.15,1.48,6.08,1.78,2.98.3,6.82.31,12.23.31s9.25,0,12.23-.31c2.93-.3,4.7-.86,6.08-1.78,1.35-.9,2.51-2.06,3.42-3.42.92-1.37,1.48-3.15,1.78-6.08.3-2.98.31-6.82.31-12.23v-9.52c0-1.88,0-3-.11-3.8-.05-.37-.11-.55-.14-.64,0-.02-.01-.03-.02-.04h0s0-.01,0-.01c0,0-.02-.01-.04-.02-.08-.03-.27-.09-.63-.14-.8-.11-1.92-.11-3.8-.11h-3.98c-1.65,0-3.16,0-4.39-.17-1.35-.18-2.79-.61-3.96-1.79-1.18-1.18-1.61-2.61-1.79-3.96-.17-1.23-.17-2.74-.16-4.39v-4.74c0-1.49,0-2.38-.07-3.03-.04-.38-.09-.54-.11-.58-.06-.07-.12-.14-.2-.2-.05-.02-.2-.07-.58-.11-.6-.06-1.39-.07-2.67-.07ZM63.22,77.8c-2,.03-4.21.03-6.66.03h-.32c-5.22,0-9.35,0-12.65-.34-3.38-.34-6.21-1.06-8.67-2.71-1.98-1.32-3.67-3.02-4.99-4.99-1.65-2.47-2.37-5.29-2.71-8.67-.34-3.3-.34-7.43-.34-12.65v-9.09c0-4.35,0-7.99.18-11.05l-.82.22c-6.61,1.77-10.53,8.56-8.76,15.16l8.38,31.28c1.77,6.61,8.56,10.53,15.16,8.76l22.08-5.92s.07-.02.11-.03ZM78.65,27.64c.13.24.26.48.37.73-1.02-.07-2.17-.07-3.4-.07h-3.98c-1.88,0-3,0-3.8-.11-.37-.05-.55-.11-.63-.14-.02,0-.03-.01-.04-.02h0s0-.01,0-.01c0,0,0-.02-.02-.04-.03-.08-.09-.27-.14-.64-.11-.8-.11-1.92-.11-3.8v-4.71c0-.96,0-1.86-.04-2.67.24.11.47.23.7.36,1.43.8,2.67,2,5.89,5.22,3.22,3.22,4.42,4.46,5.22,5.89Z"/>
  <rect class="cls-1" x="38.89" y="23.16" width="16.63" height="6.82" rx="3.41" ry="3.41"/>
  <rect class="cls-1" x="38.89" y="40.98" width="33.63" height="6.82" rx="3.41" ry="3.41"/>
  <rect class="cls-1" x="38.89" y="56.25" width="33.63" height="6.82" rx="3.41" ry="3.41"/>
</svg>