<?xml version="1.0" encoding="UTF-8"?>
<svg id="Layer_1" data-name="Layer 1" xmlns="http://www.w3.org/2000/svg" viewBox="0 0 100 100">
  <defs>
    <style>
      .cls-1 {
        fill: #7d8698;
      }
    </style>
  </defs>
  <path class="cls-1" d="M39.6,95.8c-1.01,0-1.87-.27-2.65-.56l-.1-.04c-1.69-.85-2.93-2.18-3.49-3.76-.66-1.53-.62-3.29.12-5.03.49-.99,1.13-1.79,1.92-2.43-1.05-5.25-3.01-10.41-5.84-15.34,0,0-2.17.82-2.19.83-.47.59-1.03.63-3.57.63-4.34,0-8.25-2.71-9.74-6.75l-2.7-7.09c-1.98-5.28.81-11.41,6.08-13.39l17.81-6.76h.02c2.54-1.56,11.36-7.88,18.87-24.57-.8-3.16.94-6.51,4.1-7.75.76-.29,1.54-.43,2.34-.43,2.77,0,5.29,1.73,6.26,4.31l20.9,55.3c.66,1.55.63,3.31-.12,5.05-.87,1.74-2.2,2.98-3.78,3.55-.45.44-.85.46-2.34.46-2.36,0-4.6-1.3-5.81-3.33-9.03-4.19-17.74-6.41-25.21-6.41-.99,0-1.96.04-2.9.12.89,4.57,2.89,9.49,5.95,14.64.1,0,.2,0,.3,0,.85,0,1.74.19,2.65.55,1.76.88,3.01,2.21,3.57,3.79.62,1.63.56,3.44-.18,5.07-.74,1.63-2.05,2.87-3.71,3.5l-14.2,5.4c-.79.34-1.42.46-2.36.46ZM51.33,83.34l-12.28,4.59c-.27.11-.54.34-.62.54-.1.32-.11.68,0,.96.21.61.7.81,1.1.81.15,0,.29-.03.43-.08l14.19-5.39c.4-.13.58-.38.67-.57.14-.29.16-.64.04-.96-.03-.07-.06-.13-.1-.19l-.04.04-.68-.45s-.14-.03-.34-.03c-.06,0-.13,0-.19,0l-.2.2h-.44l-1.54.54ZM34.84,66.52c2.75,4.99,4.62,9.91,5.7,14.97l7.7-2.91c-3.09-5.41-5.03-10.31-5.92-14.91l-7.48,2.85ZM80.4,65.81c.21.46.66.62,1.03.62.15,0,.29-.03.43-.08.26-.11.54-.33.61-.53l.18-.44c0-.15-.03-.29-.08-.41L61.66,9.65c-.2-.59-.69-.79-1.09-.79-.15,0-.29.03-.43.08-.39.13-.57.38-.66.56-.14.29-.16.64-.04.96l11.6,30.69c.29.72.27,1.51-.05,2.2-.31.66-.88,1.17-1.57,1.4-.29.12-.66.19-1.02.19-1.16,0-2.18-.73-2.54-1.82l-9.18-24.33c-6.34,12.24-13.05,18.28-16.95,21l6.54,17.23c1.36-.15,2.78-.23,4.24-.23,6.73,0,14.42,1.63,22.38,4.73l-3.01-8.07c-.29-.72-.27-1.5.05-2.19.31-.66.88-1.17,1.57-1.4.29-.12.66-.19,1.02-.19,1.16,0,2.18.73,2.54,1.82l5.35,14.24v.09ZM19.35,48.04c-1.2.44-2.19,1.38-2.72,2.58-.54,1.21-.57,2.53-.1,3.71l2.71,7.12c.68,1.86,2.56,3.16,4.58,3.16.59,0,1.17-.11,1.72-.33l4.32-1.61,11.16-4.24-6.19-16.23-15.47,5.85Z"/>
  <path class="cls-1" d="M65.9,8c-1.1-2.9-4.4-4.4-7.3-3.3-2.8,1.1-4.3,4.1-3.4,6.9-8.5,19.1-18.7,24.9-19.5,25.4l-17.9,6.8c-4.8,1.8-7.3,7.3-5.5,12.1l2.7,7.1c1.4,3.8,5,6.1,8.8,6.1s2.2-.2,3.3-.6l2.9-1.1c3.2,5.4,5.4,11.1,6.5,17-.9.6-1.6,1.4-2.1,2.4-.6,1.4-.7,2.9-.1,4.3.5,1.4,1.6,2.5,3,3.2.8.3,1.5.5,2.3.5s1.3-.1,2-.4l14.2-5.4c2.9-1.1,4.4-4.4,3.3-7.3-.5-1.4-1.6-2.5-3-3.2-1-.4-2.1-.6-3.1-.4-3.7-6.1-5.8-11.6-6.6-16.6,8.3-1,18.9,1.2,30,6.4,1,1.9,3,3.1,5.1,3.1s1.3-.1,2-.4c1.4-.5,2.5-1.6,3.2-3,.6-1.4.7-2.9.1-4.3l-20.9-55.3h0ZM25.9,65.2c-3,1.2-6.5-.4-7.6-3.4l-2.7-7.1c-1.2-3,.4-6.5,3.4-7.6l16.4-6.2,6.9,18.1-12.1,4.6-4.3,1.6h0ZM54.7,81.7c.5.2.9.7,1.1,1.2.4,1.1-.1,2.4-1.3,2.8l-14.2,5.4c-1.1.4-2.4-.1-2.8-1.3-.2-.5-.2-1.1,0-1.7.2-.5.7-.9,1.2-1.1l12.3-4.6,1.7-.6h.2c.2-.2.5-.2.8-.2s.6,0,.9.2h0l.1-.1ZM39.8,82.9c-1.1-5.9-3.3-11.5-6.4-16.9l9.7-3.7c.8,5.2,3,10.7,6.6,16.8l-9.8,3.7h0l-.1.1ZM83.4,66.2c-.2.5-.7.9-1.2,1.1-1.1.4-2.4-.1-2.8-1.3h0v-.1l-5.3-14.1c-.3-.9-1.3-1.4-2.3-1-.9.3-1.4,1.3-1,2.3l3.8,10.2c-10.7-4.5-20.8-6.3-29-5.2l-7.1-18.7c3.2-2.1,11.1-8.3,18.3-23.1l10,26.5c.3.9,1.3,1.4,2.3,1,.9-.3,1.4-1.3,1-2.3l-11.6-30.7c-.4-1.1.1-2.4,1.3-2.8,1.1-.4,2.4.1,2.8,1.3l20.9,55.3c.2.5.2,1.1,0,1.7h0l-.1-.1Z"/>
</svg>