<?xml version="1.0" encoding="UTF-8"?>
<svg id="Layer_1" data-name="Layer 1" xmlns="http://www.w3.org/2000/svg" viewBox="0 0 100 100">
  <defs>
    <style>
      .cls-1 {
        fill: #7d8698;
      }

      .cls-2, .cls-3 {
        fill: none;
        stroke: #7d8698;
        stroke-linecap: round;
        stroke-width: 6.17px;
      }

      .cls-3 {
        stroke-linejoin: round;
      }
    </style>
  </defs>
  <path class="cls-3" d="M63.37,45.54l-13.37,13.37-8.91-8.91-13.37,13.37"/>
  <path class="cls-2" d="M56.68,21.04h-31.39c-4.61,0-6.91,0-8.67.9-1.55.79-2.81,2.05-3.59,3.59-.9,1.76-.9,4.06-.9,8.67v40.51c0,4.61,0,6.91.9,8.67.79,1.55,2.05,2.81,3.59,3.59,1.76.9,4.06.9,8.67.9h40.51c4.61,0,6.91,0,8.67-.9,1.55-.79,2.81-2.05,3.59-3.59.9-1.76.9-4.06.9-8.67v-31.39"/>
  <circle class="cls-1" cx="78.96" cy="21.04" r="8.91"/>
</svg>