<?xml version="1.0" encoding="UTF-8"?>
<svg id="Layer_1" data-name="Layer 1" xmlns="http://www.w3.org/2000/svg" viewBox="0 0 100 100">
  <defs>
    <style>
      .cls-1 {
        fill: none;
        stroke: #7d8698;
        stroke-linecap: round;
        stroke-width: 5.98px;
      }
    </style>
  </defs>
  <path class="cls-1" d="M71.91,16.14h.8c7.14,0,10.7,0,12.92,2.22,2.22,2.22,2.22,5.79,2.22,12.92v.8"/>
  <path class="cls-1" d="M71.91,83.86h.8c7.14,0,10.7,0,12.92-2.22,2.22-2.22,2.22-5.79,2.22-12.92v-.8"/>
  <path class="cls-1" d="M28.09,16.14h-.8c-7.14,0-10.7,0-12.92,2.22-2.22,2.22-2.22,5.79-2.22,12.92v.8"/>
  <path class="cls-1" d="M28.09,83.86h-.8c-7.14,0-10.7,0-12.92-2.22-2.22-2.22-2.22-5.79-2.22-12.92v-.8"/>
  <path class="cls-1" d="M31.76,65.64c1.78-2.56,4.38-4.75,7.59-6.3,3.21-1.55,6.89-2.37,10.66-2.37s7.44.83,10.66,2.37c3.21,1.55,5.81,3.74,7.59,6.3"/>
  <circle class="cls-1" cx="50" cy="38.05" r="8.96"/>
</svg>