<svg width="29" height="30" viewBox="0 0 29 30" fill="none" xmlns="http://www.w3.org/2000/svg">
<g clip-path="url(#clip0_345_247)">
<path fillRule="evenodd" clipRule="evenodd" d="M2.4165 8.95833C2.4165 5.62161 5.12145 2.91667 8.45817 2.91667H20.5415C23.8782 2.91667 26.5832 5.62161 26.5832 8.95833V21.0417C26.5832 24.3784 23.8782 27.0833 20.5415 27.0833H8.45817C5.12145 27.0833 2.4165 24.3784 2.4165 21.0417V8.95833ZM8.45817 5.33333C6.45614 5.33333 4.83317 6.9563 4.83317 8.95833V21.0417C4.83317 23.0437 6.45614 24.6667 8.45817 24.6667H20.5415C22.5435 24.6667 24.1665 23.0437 24.1665 21.0417V8.95833C24.1665 6.9563 22.5435 5.33333 20.5415 5.33333H8.45817ZM11.0821 11.5823C11.554 11.1104 12.3191 11.1104 12.7909 11.5823L14.4998 13.2912L16.2087 11.5823C16.6806 11.1104 17.4456 11.1104 17.9175 11.5823C18.3894 12.0542 18.3894 12.8193 17.9175 13.2912L16.2087 15L17.9175 16.7088C18.3894 17.1807 18.3894 17.9458 17.9175 18.4177C17.4456 18.8896 16.6805 18.8896 16.2086 18.4177L14.4998 16.7089L12.791 18.4177C12.3191 18.8896 11.554 18.8896 11.0822 18.4177C10.6103 17.9458 10.6103 17.1807 11.0822 16.7088L12.791 15L11.0821 13.2911C10.6102 12.8193 10.6102 12.0542 11.0821 11.5823Z" fill="#4C566A"/>
</g>
<defs>
<clipPath id="clip0_345_247">
<rect width="29" height="29" fill="white" transform="translate(0 0.5)"/>
</clipPath>
</defs>
</svg>
