<svg width="29" height="30" viewBox="0 0 29 30" fill="none" xmlns="http://www.w3.org/2000/svg">
<path fillRule="evenodd" clipRule="evenodd" d="M17.9782 3.77109C19.3939 2.35544 21.6891 2.35544 23.1048 3.77109L25.7288 6.39507C27.1444 7.81073 27.1444 10.1059 25.7288 11.5216L16.5626 20.6878C16.336 20.9144 16.0286 21.0417 15.7082 21.0417H9.6665C8.99916 21.0417 8.45817 20.5007 8.45817 19.8333V13.7917C8.45817 13.4712 8.58548 13.1639 8.81208 12.9372L17.9782 3.77109ZM21.3959 5.47993C20.924 5.00805 20.159 5.00805 19.6871 5.47993L18.6253 6.54167L22.9582 10.8745L24.0199 9.81275C24.4918 9.34087 24.4918 8.5758 24.0199 8.10392L21.3959 5.47993ZM21.2493 12.5833L16.9165 8.25051L10.8748 14.2922V18.625H15.2077L21.2493 12.5833ZM8.45817 5.33333C6.45614 5.33333 4.83317 6.9563 4.83317 8.95833V21.0417C4.83317 23.0437 6.45614 24.6667 8.45817 24.6667H20.5415C22.5435 24.6667 24.1665 23.0437 24.1665 21.0417V17.4167C24.1665 16.7493 24.7075 16.2083 25.3748 16.2083C26.0422 16.2083 26.5832 16.7493 26.5832 17.4167V21.0417C26.5832 24.3784 23.8782 27.0833 20.5415 27.0833H8.45817C5.12145 27.0833 2.4165 24.3784 2.4165 21.0417V8.95833C2.4165 5.62161 5.12145 2.91667 8.45817 2.91667H12.0832C12.7505 2.91667 13.2915 3.45766 13.2915 4.125C13.2915 4.79234 12.7505 5.33333 12.0832 5.33333H8.45817Z" fill="#4C566A"/>
</svg>
