<svg id="svg" version="1.1" xmlns="http://www.w3.org/2000/svg" xmlns:xlink="http://www.w3.org/1999/xlink" width="400" height="400" viewBox="0, 0, 400,400"><g id="svgg"><path id="path0" d="M186.647 98.328 C 184.636 100.008,181.982 101.361,179.178 102.137 C 177.980 102.468,175.908 103.196,174.574 103.756 C 173.240 104.315,170.654 105.031,168.827 105.348 C 164.887 106.032,162.684 107.407,161.283 110.056 C 159.996 112.489,158.553 113.895,156.000 115.201 C 153.691 116.383,151.334 118.996,150.957 120.793 C 150.085 124.952,147.778 129.276,145.723 130.604 C 143.453 132.071,142.816 133.181,141.409 138.122 L 140.019 143.000 139.910 156.000 C 139.748 175.113,140.685 181.051,144.458 184.848 C 146.681 187.084,149.269 192.148,150.157 196.000 C 150.714 198.416,153.656 209.668,154.190 211.428 C 154.261 211.664,156.847 212.696,159.935 213.722 L 165.551 215.588 169.513 213.605 C 172.430 212.145,174.204 210.918,176.238 208.957 C 179.311 205.992,182.478 204.272,186.209 203.541 C 187.524 203.284,190.108 202.383,191.952 201.539 L 195.303 200.004 195.037 195.902 C 194.890 193.646,194.672 191.074,194.553 190.188 L 194.335 188.575 189.868 187.664 C 183.763 186.418,181.270 185.213,177.320 181.601 C 169.875 174.792,168.400 171.047,168.400 158.957 C 168.400 146.489,170.585 140.626,176.732 136.600 C 178.407 135.503,183.309 131.725,183.800 131.152 C 187.382 126.977,189.065 126.152,196.800 124.784 C 203.326 123.630,213.672 126.510,215.956 130.118 C 216.710 131.308,218.206 132.483,223.672 136.175 C 229.849 140.348,232.497 148.459,231.643 160.600 C 230.776 172.943,232.256 177.563,235.741 173.393 C 237.355 171.463,240.612 169.577,243.610 168.838 C 246.465 168.134,250.323 165.951,250.817 164.760 C 251.386 163.384,253.804 161.087,255.772 160.051 C 256.747 159.538,257.999 158.282,259.070 156.743 L 260.796 154.263 260.561 149.032 C 260.362 144.621,257.836 131.800,257.084 131.388 C 252.432 128.838,249.200 124.554,249.200 120.939 C 249.200 119.568,246.325 116.374,244.053 115.220 C 241.452 113.899,240.012 112.505,238.717 110.056 C 237.327 107.428,235.189 106.099,230.949 105.231 C 228.966 104.824,226.066 103.931,224.505 103.246 C 222.943 102.561,221.481 102.000,221.256 102.000 C 220.139 102.000,214.881 99.710,213.397 98.577 L 211.711 97.290 199.978 97.141 L 188.245 96.993 186.647 98.328 M232.278 221.349 C 230.897 222.248,229.990 223.275,229.054 225.000 C 227.582 227.713,222.900 230.426,214.900 233.204 C 212.865 233.911,211.196 234.694,211.190 234.945 C 211.142 237.159,206.444 240.852,202.163 242.039 C 198.439 243.071,194.179 245.431,193.276 246.960 C 191.580 249.836,184.415 254.185,177.500 256.537 C 176.323 256.937,176.705 257.921,178.909 260.160 C 180.069 261.339,181.414 263.180,181.898 264.251 C 183.700 268.244,185.653 273.760,186.446 277.099 C 187.619 282.039,188.208 283.270,190.188 284.926 C 191.324 285.875,192.417 287.355,193.269 289.098 C 193.995 290.584,195.510 293.182,196.634 294.870 C 197.758 296.559,198.908 298.494,199.188 299.170 C 199.776 300.591,200.240 300.734,200.598 299.605 C 200.737 299.168,201.948 297.143,203.290 295.105 C 204.631 293.067,206.287 290.326,206.970 289.013 C 207.751 287.511,208.828 286.176,209.874 285.413 C 211.843 283.976,212.941 281.742,213.855 277.310 C 215.352 270.053,217.887 264.472,221.151 261.248 C 222.936 259.486,223.560 258.541,223.963 256.991 C 227.093 244.951,229.461 240.172,233.293 238.160 C 234.785 237.377,235.481 235.868,236.391 231.442 C 236.818 229.371,237.534 226.630,237.983 225.352 C 239.013 222.423,239.038 222.612,237.496 221.659 C 234.836 220.015,234.368 219.987,232.278 221.349 " stroke="none" fill="#f92227" fillRule="evenodd"></path><path id="path1" d="M181.800 88.232 C 173.117 89.399,170.022 90.685,166.651 94.525 C 164.674 96.777,164.074 97.194,161.701 97.973 C 160.215 98.460,158.036 99.430,156.858 100.129 C 155.679 100.828,153.938 101.850,152.988 102.400 C 150.666 103.744,149.279 105.094,148.342 106.922 C 147.913 107.759,146.930 109.271,146.158 110.282 C 145.386 111.293,144.391 112.834,143.946 113.706 C 143.501 114.577,141.875 116.566,140.332 118.125 C 138.788 119.683,137.014 121.855,136.388 122.950 C 135.224 124.988,134.974 125.834,132.767 135.200 C 131.761 139.469,131.265 140.851,130.396 141.800 C 127.112 145.385,125.075 161.622,127.151 167.657 C 128.067 170.320,129.391 172.997,130.585 174.600 C 131.077 175.260,131.605 176.520,131.760 177.400 C 132.016 178.861,133.141 183.887,135.206 192.788 C 136.275 197.396,137.705 200.135,140.534 202.990 C 143.298 205.780,144.309 208.065,145.613 214.466 C 147.703 224.718,150.936 228.001,159.910 228.982 C 167.103 229.768,169.315 228.816,172.026 223.766 C 172.837 222.256,176.101 220.499,179.826 219.569 C 183.997 218.526,185.529 217.623,188.862 214.243 L 191.800 211.265 198.000 209.190 C 206.570 206.321,207.840 205.480,209.591 201.517 C 210.600 199.231,210.409 199.354,214.792 198.181 C 223.192 195.933,227.528 193.446,229.046 190.005 C 229.871 188.135,232.734 186.446,236.800 185.432 C 240.556 184.495,242.802 183.219,244.284 181.178 C 247.101 177.302,247.107 177.296,250.504 176.176 C 252.317 175.578,254.649 174.664,255.687 174.144 C 256.724 173.625,257.804 173.198,258.087 173.196 C 260.763 173.176,264.539 169.904,266.842 165.610 C 267.730 163.954,269.242 161.790,270.202 160.800 C 273.902 156.986,274.419 154.937,273.193 148.944 C 272.069 143.448,271.702 142.494,269.999 140.634 C 268.614 139.121,268.380 138.483,266.834 132.022 C 264.860 123.770,264.073 122.162,259.944 117.943 C 258.263 116.225,256.406 113.999,255.818 112.994 C 255.229 111.990,254.244 110.590,253.628 109.884 C 253.012 109.178,252.141 107.880,251.693 107.000 C 250.725 105.099,249.363 103.761,247.012 102.400 C 246.062 101.850,244.321 100.828,243.142 100.129 C 241.964 99.430,239.758 98.451,238.241 97.953 C 235.790 97.150,235.287 96.800,233.746 94.824 C 230.591 90.781,227.668 89.519,218.800 88.368 C 211.580 87.431,188.393 87.346,181.800 88.232 M217.697 92.228 C 223.272 93.309,224.909 94.008,228.041 96.646 C 229.008 97.461,231.330 98.828,233.200 99.683 C 240.616 103.073,240.770 103.181,246.796 109.200 C 251.644 114.042,252.881 115.528,254.286 118.200 C 255.271 120.073,256.953 122.419,258.344 123.858 C 262.443 128.101,265.276 136.553,266.644 148.626 L 267.327 154.653 265.895 157.626 C 262.438 164.810,256.881 169.748,248.600 172.996 C 244.378 174.652,243.820 175.005,240.899 177.855 C 238.482 180.214,234.424 182.800,233.141 182.800 C 231.843 182.800,225.901 186.221,223.400 188.408 C 220.660 190.803,217.334 192.643,211.428 195.031 C 208.694 196.136,208.087 196.634,203.731 201.350 C 201.791 203.450,199.320 204.767,192.403 207.390 C 187.062 209.414,186.029 210.000,183.172 212.621 C 182.163 213.546,179.024 215.479,176.172 216.932 C 173.327 218.381,169.792 220.362,168.315 221.334 L 165.630 223.102 160.381 222.167 C 153.638 220.966,154.001 221.114,152.329 218.899 C 150.207 216.089,149.509 214.500,146.830 206.380 C 144.803 200.236,144.057 198.514,142.374 196.096 C 130.600 179.184,130.256 136.453,141.794 124.243 C 143.150 122.808,144.751 120.462,145.887 118.243 C 147.547 115.002,148.375 113.982,153.383 109.000 C 159.250 103.164,159.249 103.164,167.200 99.486 C 169.290 98.519,171.797 97.056,172.772 96.235 C 177.537 92.222,182.704 91.261,199.697 91.226 C 211.750 91.201,212.664 91.252,217.697 92.228 M196.400 133.828 C 194.750 134.365,192.276 135.014,190.902 135.271 C 187.849 135.841,183.094 139.357,180.343 143.077 C 179.398 144.355,178.103 146.016,177.464 146.770 C 176.825 147.523,175.681 149.413,174.923 150.970 L 173.544 153.800 173.805 159.800 C 174.111 166.811,174.438 167.644,178.596 172.000 C 179.961 173.430,181.368 175.162,181.723 175.848 C 183.701 179.680,187.406 181.665,194.693 182.796 L 200.387 183.680 205.891 182.800 C 213.181 181.634,214.040 181.141,216.155 176.915 C 217.455 174.318,219.171 172.342,221.841 170.370 C 225.146 167.928,225.597 166.881,226.237 160.164 L 226.789 154.358 225.783 151.881 C 223.689 146.728,219.779 141.918,214.139 137.557 C 212.377 136.194,211.275 135.758,206.539 134.549 C 199.203 132.676,199.809 132.719,196.400 133.828 M206.441 139.336 C 211.407 139.841,215.200 141.529,215.200 143.233 C 215.200 145.762,218.488 150.514,221.430 152.239 C 223.586 153.502,223.631 153.647,223.185 157.876 C 222.635 163.101,221.733 165.162,219.445 166.428 C 215.986 168.342,212.000 173.716,212.000 176.465 C 212.000 177.444,211.829 177.506,205.716 178.747 L 200.200 179.867 194.400 179.109 C 187.428 178.198,187.246 178.097,186.073 174.455 C 184.966 171.018,183.253 168.652,180.587 166.879 C 178.009 165.164,177.224 163.223,176.917 157.797 L 176.690 153.782 179.082 152.305 C 181.814 150.619,183.221 148.734,184.452 145.109 C 185.787 141.177,187.405 139.997,192.106 139.529 C 194.138 139.326,196.700 139.015,197.800 138.837 C 198.900 138.659,200.160 138.583,200.600 138.669 C 201.040 138.754,203.668 139.054,206.441 139.336 M242.400 204.733 C 238.969 205.872,237.585 206.706,235.000 209.195 C 233.055 211.068,232.084 211.669,229.879 212.365 C 223.247 214.459,217.732 217.870,215.991 220.955 C 214.567 223.478,212.687 224.649,208.757 225.463 C 204.055 226.436,197.607 230.388,196.081 233.232 C 195.520 234.278,189.605 237.205,186.400 238.024 C 182.784 238.948,180.115 241.010,178.558 244.083 C 178.013 245.158,177.350 246.099,177.084 246.175 C 168.809 248.520,166.748 253.633,168.963 266.322 C 169.942 271.929,172.066 275.397,175.638 277.219 C 177.553 278.196,178.152 279.356,178.767 283.276 C 180.480 294.183,183.480 300.693,187.574 302.389 C 188.359 302.714,188.837 303.259,189.004 304.017 C 190.974 312.986,206.136 313.723,210.402 305.057 C 211.326 303.181,212.001 302.331,212.849 301.980 C 214.481 301.304,217.345 298.001,218.096 295.930 C 219.210 292.857,221.136 286.115,221.853 282.778 C 222.552 279.529,222.553 279.527,224.665 278.176 C 228.622 275.644,230.411 271.787,232.046 262.261 C 233.000 256.700,233.720 254.911,235.359 254.026 C 239.766 251.647,242.016 247.359,243.560 238.392 C 244.482 233.038,245.033 231.996,247.755 230.460 C 252.352 227.866,253.507 225.149,253.675 216.542 L 253.800 210.083 252.588 208.351 C 250.078 204.765,246.322 203.431,242.400 204.733 M248.194 217.038 L 248.468 222.676 246.394 225.038 C 243.890 227.889,242.129 231.292,240.467 236.490 C 238.942 241.261,237.581 244.041,235.608 246.412 C 232.366 250.309,230.395 254.354,228.624 260.740 C 227.318 265.450,225.361 269.685,223.430 271.978 C 221.372 274.423,219.781 277.718,217.973 283.282 C 215.884 289.713,214.418 292.627,211.538 296.072 C 210.192 297.683,208.234 300.270,207.187 301.821 C 201.944 309.587,197.498 309.357,192.130 301.043 C 191.120 299.480,189.405 297.134,188.319 295.832 C 185.801 292.812,184.798 290.806,183.204 285.600 C 182.497 283.290,181.670 280.614,181.367 279.654 C 180.596 277.207,178.353 273.314,176.491 271.193 C 174.124 268.496,172.914 265.528,171.635 259.283 C 170.909 255.738,173.094 252.511,178.337 249.384 C 180.022 248.380,182.570 246.480,184.000 245.163 C 186.099 243.231,188.026 242.060,194.000 239.089 C 199.956 236.127,201.912 234.940,204.025 233.004 C 205.469 231.682,207.269 230.299,208.025 229.931 C 208.781 229.564,211.470 228.274,214.000 227.065 C 217.642 225.325,219.433 224.152,222.600 221.433 C 227.208 217.477,231.536 215.130,235.909 214.215 C 238.968 213.576,240.531 212.849,243.773 210.557 L 245.747 209.162 246.833 210.281 C 247.878 211.357,247.930 211.618,248.194 217.038 " stroke="none" fill="#340408" fillRule="evenodd"></path><path id="path2" d="M182.215 92.261 C 176.937 93.374,175.402 94.020,172.772 96.235 C 171.797 97.056,169.290 98.519,167.200 99.486 C 159.249 103.164,159.250 103.164,153.383 109.000 C 148.375 113.982,147.547 115.002,145.887 118.243 C 144.751 120.462,143.150 122.808,141.794 124.243 C 130.256 136.453,130.600 179.184,142.374 196.096 C 144.057 198.514,144.803 200.236,146.830 206.380 C 149.509 214.500,150.207 216.089,152.329 218.899 C 154.001 221.114,153.638 220.966,160.381 222.167 L 165.630 223.102 168.315 221.334 C 169.792 220.362,173.327 218.381,176.172 216.932 C 179.024 215.479,182.163 213.546,183.172 212.621 C 186.029 210.000,187.062 209.414,192.403 207.390 C 199.320 204.767,201.791 203.450,203.731 201.350 C 208.087 196.634,208.694 196.136,211.428 195.031 C 217.334 192.643,220.660 190.803,223.400 188.408 C 225.901 186.221,231.843 182.800,233.141 182.800 C 234.424 182.800,238.482 180.214,240.899 177.855 C 243.820 175.005,244.378 174.652,248.600 172.996 C 256.881 169.748,262.438 164.810,265.895 157.626 L 267.327 154.653 266.644 148.626 C 265.276 136.553,262.443 128.101,258.344 123.858 C 256.953 122.419,255.271 120.073,254.286 118.200 C 252.881 115.528,251.644 114.042,246.796 109.200 C 240.770 103.181,240.616 103.073,233.200 99.683 C 231.330 98.828,229.008 97.461,228.041 96.646 C 222.744 92.184,217.542 91.189,199.697 91.226 C 187.709 91.251,186.733 91.308,182.215 92.261 M213.397 98.577 C 214.881 99.710,220.139 102.000,221.256 102.000 C 221.481 102.000,222.943 102.561,224.505 103.246 C 226.066 103.931,228.966 104.824,230.949 105.231 C 235.189 106.099,237.327 107.428,238.717 110.056 C 240.012 112.505,241.452 113.899,244.053 115.220 C 246.325 116.374,249.200 119.568,249.200 120.939 C 249.200 124.554,252.432 128.838,257.084 131.388 C 257.836 131.800,260.362 144.621,260.561 149.032 L 260.796 154.263 259.070 156.743 C 257.999 158.282,256.747 159.538,255.772 160.051 C 253.804 161.087,251.386 163.384,250.817 164.760 C 250.323 165.951,246.465 168.134,243.610 168.838 C 240.612 169.577,237.355 171.463,235.741 173.393 C 232.256 177.563,230.776 172.943,231.643 160.600 C 232.497 148.459,229.849 140.348,223.672 136.175 C 218.206 132.483,216.710 131.308,215.956 130.118 C 213.672 126.510,203.326 123.630,196.800 124.784 C 189.065 126.152,187.382 126.977,183.800 131.152 C 183.309 131.725,178.407 135.503,176.732 136.600 C 170.585 140.626,168.400 146.489,168.400 158.957 C 168.400 171.047,169.875 174.792,177.320 181.601 C 181.270 185.213,183.763 186.418,189.868 187.664 L 194.335 188.575 194.553 190.188 C 194.672 191.074,194.890 193.646,195.037 195.902 L 195.303 200.004 191.952 201.539 C 190.108 202.383,187.524 203.284,186.209 203.541 C 182.478 204.272,179.311 205.992,176.238 208.957 C 174.204 210.918,172.430 212.145,169.513 213.605 L 165.551 215.588 159.935 213.722 C 156.847 212.696,154.261 211.664,154.190 211.428 C 153.656 209.668,150.714 198.416,150.157 196.000 C 149.269 192.148,146.681 187.084,144.458 184.848 C 140.685 181.051,139.748 175.113,139.910 156.000 L 140.019 143.000 141.409 138.122 C 142.816 133.181,143.453 132.071,145.723 130.604 C 147.778 129.276,150.085 124.952,150.957 120.793 C 151.334 118.996,153.691 116.383,156.000 115.201 C 158.553 113.895,159.996 112.489,161.283 110.056 C 162.684 107.407,164.887 106.032,168.827 105.348 C 170.654 105.031,173.240 104.315,174.574 103.756 C 175.908 103.196,177.980 102.468,179.178 102.137 C 181.982 101.361,184.636 100.008,186.647 98.328 L 188.245 96.993 199.978 97.141 L 211.711 97.290 213.397 98.577 M206.539 134.549 C 211.275 135.758,212.377 136.194,214.139 137.557 C 219.779 141.918,223.689 146.728,225.783 151.881 L 226.789 154.358 226.237 160.164 C 225.597 166.881,225.146 167.928,221.841 170.370 C 219.171 172.342,217.455 174.318,216.155 176.915 C 214.040 181.141,213.181 181.634,205.891 182.800 L 200.387 183.680 194.693 182.796 C 187.406 181.665,183.701 179.680,181.723 175.848 C 181.368 175.162,179.961 173.430,178.596 172.000 C 174.438 167.644,174.111 166.811,173.805 159.800 L 173.544 153.800 174.923 150.970 C 175.681 149.413,176.825 147.523,177.464 146.770 C 178.103 146.016,179.398 144.355,180.343 143.077 C 183.094 139.357,187.849 135.841,190.902 135.271 C 192.276 135.014,194.750 134.365,196.400 133.828 C 199.809 132.719,199.203 132.676,206.539 134.549 M243.773 210.557 C 240.531 212.849,238.968 213.576,235.909 214.215 C 231.536 215.130,227.208 217.477,222.600 221.433 C 219.433 224.152,217.642 225.325,214.000 227.065 C 211.470 228.274,208.781 229.564,208.025 229.931 C 207.269 230.299,205.469 231.682,204.025 233.004 C 201.912 234.940,199.956 236.127,194.000 239.089 C 188.026 242.060,186.099 243.231,184.000 245.163 C 182.570 246.480,180.022 248.380,178.337 249.384 C 173.094 252.511,170.909 255.738,171.635 259.283 C 172.914 265.528,174.124 268.496,176.491 271.193 C 178.353 273.314,180.596 277.207,181.367 279.654 C 181.670 280.614,182.497 283.290,183.204 285.600 C 184.798 290.806,185.801 292.812,188.319 295.832 C 189.405 297.134,191.120 299.480,192.130 301.043 C 197.498 309.357,201.944 309.587,207.187 301.821 C 208.234 300.270,210.192 297.683,211.538 296.072 C 214.418 292.627,215.884 289.713,217.973 283.282 C 219.781 277.718,221.372 274.423,223.430 271.978 C 225.361 269.685,227.318 265.450,228.624 260.740 C 230.395 254.354,232.366 250.309,235.608 246.412 C 237.581 244.041,238.942 241.261,240.467 236.490 C 242.129 231.292,243.890 227.889,246.394 225.038 L 248.468 222.676 248.194 217.038 C 247.930 211.618,247.878 211.357,246.833 210.281 L 245.747 209.162 243.773 210.557 M237.496 221.659 C 239.038 222.612,239.013 222.423,237.983 225.352 C 237.534 226.630,236.818 229.371,236.391 231.442 C 235.481 235.868,234.785 237.377,233.293 238.160 C 229.461 240.172,227.093 244.951,223.963 256.991 C 223.560 258.541,222.936 259.486,221.151 261.248 C 217.887 264.472,215.352 270.053,213.855 277.310 C 212.941 281.742,211.843 283.976,209.874 285.413 C 208.828 286.176,207.751 287.511,206.970 289.013 C 206.287 290.326,204.631 293.067,203.290 295.105 C 201.948 297.143,200.737 299.168,200.598 299.605 C 200.240 300.734,199.776 300.591,199.188 299.170 C 198.908 298.494,197.758 296.559,196.634 294.870 C 195.510 293.182,193.995 290.584,193.269 289.098 C 192.417 287.355,191.324 285.875,190.188 284.926 C 188.208 283.270,187.619 282.039,186.446 277.099 C 185.653 273.760,183.700 268.244,181.898 264.251 C 181.414 263.180,180.069 261.339,178.909 260.160 C 176.705 257.921,176.323 256.937,177.500 256.537 C 184.415 254.185,191.580 249.836,193.276 246.960 C 194.179 245.431,198.439 243.071,202.163 242.039 C 206.444 240.852,211.142 237.159,211.190 234.945 C 211.196 234.694,212.865 233.911,214.900 233.204 C 222.900 230.426,227.582 227.713,229.054 225.000 C 231.478 220.532,234.035 219.520,237.496 221.659 " stroke="none" fill="#9c1418" fillRule="evenodd"></path><path id="path3" d="M179.800 86.805 C 172.276 87.638,168.377 88.449,166.826 89.501 C 166.262 89.884,165.315 90.410,164.722 90.670 C 163.133 91.367,160.164 94.239,159.584 95.639 C 159.041 96.949,156.311 98.442,152.000 99.786 C 148.294 100.941,145.219 104.367,145.204 107.358 C 145.195 109.147,143.068 111.629,140.560 112.777 C 136.575 114.603,134.108 119.094,132.965 126.600 C 131.743 134.631,131.711 134.727,130.016 135.592 C 124.572 138.369,123.002 143.696,123.001 159.400 C 123.000 172.300,124.969 178.809,129.798 181.864 C 131.689 183.060,132.434 185.413,133.008 192.000 C 133.840 201.555,136.558 207.056,141.120 208.423 C 143.154 209.033,143.448 209.704,144.023 215.043 C 145.482 228.597,148.223 231.464,160.123 231.886 C 170.033 232.237,174.800 229.551,174.800 223.615 C 174.800 222.813,176.793 221.600,178.109 221.600 C 185.137 221.600,193.106 217.728,195.402 213.197 C 196.450 211.128,197.997 210.402,203.083 209.593 C 206.717 209.014,209.169 207.791,210.200 206.043 C 211.507 203.827,215.263 199.997,216.370 199.751 C 227.639 197.252,231.976 194.461,231.996 189.694 C 232.001 188.517,234.125 187.203,236.027 187.201 C 238.334 187.199,242.066 186.387,243.587 185.555 C 249.276 182.447,250.588 181.390,252.076 178.719 C 253.008 177.048,256.563 175.264,259.058 175.216 C 262.634 175.148,267.353 172.268,268.186 169.644 C 268.333 169.180,269.451 167.855,270.669 166.700 C 274.137 163.412,274.424 163.088,275.191 161.600 C 279.763 152.723,276.143 135.457,269.352 133.752 C 268.615 133.567,268.390 133.162,268.190 131.661 C 266.632 119.918,264.243 114.667,259.519 112.604 C 256.972 111.491,254.806 109.048,254.796 107.275 C 254.779 104.364,251.661 100.927,248.000 99.786 C 243.689 98.442,240.959 96.949,240.416 95.639 C 239.788 94.122,236.799 91.326,235.003 90.576 C 234.262 90.266,233.543 89.832,233.407 89.611 C 231.625 86.729,196.893 84.910,179.800 86.805 M218.800 88.368 C 227.668 89.519,230.591 90.781,233.746 94.824 C 235.287 96.800,235.790 97.150,238.241 97.953 C 239.758 98.451,241.964 99.430,243.142 100.129 C 244.321 100.828,246.062 101.850,247.012 102.400 C 249.363 103.761,250.725 105.099,251.693 107.000 C 252.141 107.880,253.012 109.178,253.628 109.884 C 254.244 110.590,255.229 111.990,255.818 112.994 C 256.406 113.999,258.263 116.225,259.944 117.943 C 264.073 122.162,264.860 123.770,266.834 132.022 C 268.380 138.483,268.614 139.121,269.999 140.634 C 271.702 142.494,272.069 143.448,273.193 148.944 C 274.419 154.937,273.902 156.986,270.202 160.800 C 269.242 161.790,267.730 163.954,266.842 165.610 C 264.539 169.904,260.763 173.176,258.087 173.196 C 257.804 173.198,256.724 173.625,255.687 174.144 C 254.649 174.664,252.317 175.578,250.504 176.176 C 247.107 177.296,247.101 177.302,244.284 181.178 C 242.802 183.219,240.556 184.495,236.800 185.432 C 232.734 186.446,229.871 188.135,229.046 190.005 C 227.528 193.446,223.192 195.933,214.792 198.181 C 210.409 199.354,210.600 199.231,209.591 201.517 C 207.840 205.480,206.570 206.321,198.000 209.190 L 191.800 211.265 188.862 214.243 C 185.529 217.623,183.997 218.526,179.826 219.569 C 176.101 220.499,172.837 222.256,172.026 223.766 C 169.315 228.816,167.103 229.768,159.910 228.982 C 150.936 228.001,147.703 224.718,145.613 214.466 C 144.309 208.065,143.298 205.780,140.534 202.990 C 137.705 200.135,136.275 197.396,135.206 192.788 C 133.141 183.887,132.016 178.861,131.760 177.400 C 131.605 176.520,131.077 175.260,130.585 174.600 C 129.391 172.997,128.067 170.320,127.151 167.657 C 125.075 161.622,127.112 145.385,130.396 141.800 C 131.265 140.851,131.761 139.469,132.767 135.200 C 134.974 125.834,135.224 124.988,136.388 122.950 C 137.014 121.855,138.788 119.683,140.332 118.125 C 141.875 116.566,143.501 114.577,143.946 113.706 C 144.391 112.834,145.386 111.293,146.158 110.282 C 146.930 109.271,147.913 107.759,148.342 106.922 C 149.279 105.094,150.666 103.744,152.988 102.400 C 153.938 101.850,155.679 100.828,156.858 100.129 C 158.036 99.430,160.215 98.460,161.701 97.973 C 164.074 97.194,164.674 96.777,166.651 94.525 C 171.554 88.941,177.377 87.719,199.400 87.655 C 210.564 87.622,214.039 87.750,218.800 88.368 M197.800 138.837 C 196.700 139.015,194.138 139.326,192.106 139.529 C 187.405 139.997,185.787 141.177,184.452 145.109 C 183.221 148.734,181.814 150.619,179.082 152.305 L 176.690 153.782 176.917 157.797 C 177.224 163.223,178.009 165.164,180.587 166.879 C 183.253 168.652,184.966 171.018,186.073 174.455 C 187.246 178.097,187.428 178.198,194.400 179.109 L 200.200 179.867 205.716 178.747 C 211.829 177.506,212.000 177.444,212.000 176.465 C 212.000 173.716,215.986 168.342,219.445 166.428 C 221.733 165.162,222.635 163.101,223.185 157.876 C 223.631 153.647,223.586 153.502,221.430 152.239 C 218.488 150.514,215.200 145.762,215.200 143.233 C 215.200 141.529,211.407 139.841,206.441 139.336 C 203.668 139.054,201.040 138.754,200.600 138.669 C 200.160 138.583,198.900 138.659,197.800 138.837 M207.392 141.403 C 212.461 141.690,213.011 142.026,213.391 145.070 C 213.912 149.240,215.315 152.114,217.613 153.724 L 218.459 154.316 217.650 157.058 C 217.205 158.566,216.618 161.060,216.344 162.600 C 215.917 165.003,215.628 165.616,214.299 166.923 C 213.448 167.760,212.416 169.229,212.006 170.186 C 211.595 171.144,210.903 172.040,210.467 172.179 C 209.672 172.431,206.852 175.263,206.155 176.509 C 205.357 177.935,200.790 178.427,194.800 177.734 C 188.632 177.020,188.711 177.068,188.041 173.633 C 187.464 170.670,186.337 168.080,184.995 166.633 C 184.310 165.893,183.933 164.786,183.594 162.511 C 183.339 160.800,182.893 158.249,182.602 156.843 L 182.074 154.286 183.254 153.293 C 184.943 151.872,185.905 149.736,186.563 145.945 C 187.187 142.344,187.707 141.634,189.776 141.551 C 190.449 141.524,192.890 141.376,195.200 141.223 C 197.510 141.069,200.300 140.996,201.400 141.060 C 202.500 141.124,205.197 141.279,207.392 141.403 M241.996 202.230 C 235.417 203.215,230.573 205.717,228.495 209.203 C 227.019 211.679,225.819 212.374,220.802 213.657 C 215.859 214.921,213.616 217.126,212.922 221.402 C 212.634 223.179,212.203 223.382,207.436 223.992 C 205.476 224.243,203.136 224.715,202.236 225.042 C 201.336 225.368,199.736 225.928,198.680 226.285 C 195.976 227.200,193.466 229.542,192.378 232.167 C 191.316 234.731,190.293 235.315,185.400 236.154 C 180.163 237.052,179.791 237.289,172.600 244.300 C 171.190 245.675,169.869 246.800,169.664 246.800 C 168.127 246.800,166.739 252.154,166.750 258.034 C 166.778 272.055,168.755 277.981,173.921 279.529 C 176.441 280.284,177.007 281.266,177.766 286.200 C 178.138 288.620,178.701 292.279,179.016 294.331 C 179.926 300.250,183.037 305.679,186.962 308.197 C 188.083 308.916,189.336 309.878,189.747 310.336 C 193.143 314.115,206.405 313.718,211.044 309.697 C 211.994 308.874,213.400 307.695,214.167 307.077 C 217.440 304.443,220.100 299.740,220.789 295.370 C 221.948 288.026,222.828 285.248,224.280 284.351 C 225.029 283.888,226.325 282.584,227.160 281.454 C 227.995 280.324,228.989 279.141,229.368 278.826 C 230.396 277.974,231.449 275.680,231.951 273.200 C 232.721 269.401,234.000 260.614,234.000 259.125 C 234.000 257.443,234.372 257.094,236.883 256.415 C 241.831 255.077,243.870 250.595,244.988 238.600 C 245.441 233.734,245.444 233.727,247.258 233.437 C 253.224 232.483,254.842 229.547,255.874 217.800 C 256.990 205.103,255.784 202.987,246.800 201.891 C 246.030 201.797,243.868 201.949,241.996 202.230 M249.528 205.477 C 250.544 206.105,251.921 207.398,252.588 208.351 L 253.800 210.083 253.675 216.542 C 253.507 225.149,252.352 227.866,247.755 230.460 C 245.033 231.996,244.482 233.038,243.560 238.392 C 242.016 247.359,239.766 251.647,235.359 254.026 C 233.720 254.911,233.000 256.700,232.046 262.261 C 230.411 271.787,228.622 275.644,224.665 278.176 C 222.553 279.527,222.552 279.529,221.853 282.778 C 221.136 286.115,219.210 292.857,218.096 295.930 C 217.345 298.001,214.481 301.304,212.849 301.980 C 212.001 302.331,211.326 303.181,210.402 305.057 C 206.136 313.723,190.974 312.986,189.004 304.017 C 188.837 303.259,188.359 302.714,187.574 302.389 C 183.480 300.693,180.480 294.183,178.767 283.276 C 178.152 279.356,177.553 278.196,175.638 277.219 C 172.066 275.397,169.942 271.929,168.963 266.322 C 166.748 253.633,168.809 248.520,177.084 246.175 C 177.350 246.099,178.013 245.158,178.558 244.083 C 180.115 241.010,182.784 238.948,186.400 238.024 C 189.605 237.205,195.520 234.278,196.081 233.232 C 197.607 230.388,204.055 226.436,208.757 225.463 C 212.687 224.649,214.567 223.478,215.991 220.955 C 217.732 217.870,223.247 214.459,229.879 212.365 C 232.084 211.669,233.055 211.068,235.000 209.195 C 240.041 204.340,245.450 202.956,249.528 205.477 " stroke="none" fill="#240404" fillRule="evenodd"></path><path id="path4" d="M120.000 2.740 L 120.000 5.480 109.700 5.764 C 96.577 6.127,97.214 5.722,97.204 13.700 L 97.200 17.200 90.900 17.219 C 75.417 17.267,75.251 17.338,74.668 24.180 L 74.274 28.800 69.626 28.800 C 63.216 28.800,63.357 28.669,62.996 34.941 L 62.710 39.894 58.055 40.102 C 51.291 40.405,51.614 40.055,51.605 47.100 L 51.600 51.600 47.100 51.605 C 40.053 51.614,40.405 51.289,40.102 58.068 L 39.893 62.736 35.092 63.023 C 28.701 63.404,28.800 63.302,28.800 69.544 L 28.800 74.289 26.700 74.541 C 25.545 74.680,23.829 74.795,22.887 74.797 C 18.041 74.806,17.682 75.663,17.332 88.042 L 17.076 97.084 12.620 97.323 C 5.721 97.693,6.152 96.864,5.771 110.500 L 5.495 120.400 2.747 120.400 L 0.000 120.400 0.000 199.800 L 0.000 279.200 2.757 279.200 L 5.513 279.200 5.780 286.700 C 6.319 301.879,6.612 302.400,14.620 302.400 L 17.200 302.400 17.206 307.100 C 17.214 313.892,17.071 313.725,23.203 314.126 C 25.943 314.305,28.238 314.504,28.302 314.569 C 28.367 314.633,28.586 318.717,28.790 323.643 C 29.305 336.102,29.374 336.223,36.201 336.671 C 38.518 336.823,40.010 337.092,40.025 337.360 C 40.661 348.413,40.604 348.338,48.439 348.383 L 51.478 348.400 51.733 352.569 C 52.138 359.177,52.167 359.207,58.600 359.559 L 63.000 359.800 63.266 363.291 C 63.834 370.743,63.812 370.730,76.291 371.195 C 81.225 371.378,85.364 371.631,85.489 371.755 C 85.613 371.880,85.824 374.137,85.957 376.771 C 86.264 382.819,85.956 382.541,92.559 382.734 L 97.900 382.890 98.165 385.145 C 98.780 390.396,100.006 392.031,103.895 392.791 C 105.163 393.038,107.100 393.419,108.200 393.638 C 109.300 393.856,115.015 394.146,120.900 394.281 L 131.600 394.527 131.600 397.264 L 131.600 400.000 200.000 400.000 L 268.400 400.000 268.400 397.259 L 268.400 394.518 278.845 394.229 C 292.217 393.859,291.200 394.440,291.200 387.174 L 291.200 382.800 300.100 382.776 C 314.242 382.738,313.747 382.963,313.937 376.482 C 314.101 370.876,313.720 371.214,319.886 371.206 C 325.839 371.199,325.600 371.465,325.600 364.826 L 325.600 360.000 330.300 359.983 C 345.158 359.927,347.314 358.892,347.925 351.518 L 348.200 348.200 351.966 347.702 C 357.637 346.953,358.584 345.981,359.188 340.281 C 359.778 334.714,359.914 334.418,362.273 333.537 C 364.804 332.593,366.884 330.396,367.867 327.628 C 368.418 326.078,368.782 325.600,369.414 325.600 C 370.951 325.600,371.200 324.852,371.205 320.220 C 371.214 313.630,370.953 314.000,375.587 314.000 C 382.836 314.000,382.483 314.620,382.709 301.500 L 382.887 291.200 387.644 291.200 C 394.104 291.200,393.796 291.590,394.135 283.002 C 394.281 279.300,394.400 274.501,394.400 272.336 L 394.400 268.400 397.200 268.400 L 400.000 268.400 400.000 200.000 L 400.000 131.600 397.200 131.600 L 394.400 131.600 394.396 124.700 C 394.391 115.393,393.698 102.760,393.093 100.930 C 392.384 98.787,390.865 98.053,386.502 97.743 L 382.877 97.486 382.739 92.404 C 382.562 85.915,382.812 86.188,376.735 85.861 C 374.057 85.717,371.799 85.532,371.717 85.450 C 371.635 85.368,371.419 80.991,371.237 75.723 C 370.809 63.328,370.955 63.585,364.157 63.281 L 360.114 63.100 359.846 58.354 C 359.463 51.570,359.495 51.600,352.540 51.600 L 348.400 51.600 348.400 47.460 C 348.400 40.531,348.420 40.553,341.812 40.158 C 336.328 39.830,337.164 40.682,336.848 35.105 C 336.500 28.968,336.582 29.050,330.692 28.890 C 324.360 28.719,324.558 28.797,324.268 26.342 C 323.723 21.746,321.747 19.576,317.361 18.757 C 316.063 18.515,314.433 18.066,313.740 17.758 C 312.890 17.382,310.920 17.200,307.691 17.200 L 302.903 17.200 302.634 13.100 C 302.201 6.516,301.709 6.007,295.764 6.002 C 294.204 6.001,289.929 5.882,286.264 5.737 L 279.600 5.474 279.600 2.737 L 279.600 0.000 199.800 0.000 L 120.000 0.000 120.000 2.740 M222.000 86.962 C 227.692 87.605,232.917 88.819,233.407 89.611 C 233.543 89.832,234.262 90.266,235.003 90.576 C 236.799 91.326,239.788 94.122,240.416 95.639 C 240.959 96.949,243.689 98.442,248.000 99.786 C 251.661 100.927,254.779 104.364,254.796 107.275 C 254.806 109.048,256.972 111.491,259.519 112.604 C 264.243 114.667,266.632 119.918,268.190 131.661 C 268.390 133.162,268.615 133.567,269.352 133.752 C 276.143 135.457,279.763 152.723,275.191 161.600 C 274.424 163.088,274.137 163.412,270.669 166.700 C 269.451 167.855,268.333 169.180,268.186 169.644 C 267.353 172.268,262.634 175.148,259.058 175.216 C 256.563 175.264,253.008 177.048,252.076 178.719 C 250.588 181.390,249.276 182.447,243.587 185.555 C 242.066 186.387,238.334 187.199,236.027 187.201 C 234.125 187.203,232.001 188.517,231.996 189.694 C 231.976 194.461,227.639 197.252,216.370 199.751 C 215.263 199.997,211.507 203.827,210.200 206.043 C 209.169 207.791,206.717 209.014,203.083 209.593 C 197.997 210.402,196.450 211.128,195.402 213.197 C 193.106 217.728,185.137 221.600,178.109 221.600 C 176.793 221.600,174.800 222.813,174.800 223.615 C 174.800 229.551,170.033 232.237,160.123 231.886 C 148.223 231.464,145.482 228.597,144.023 215.043 C 143.448 209.704,143.154 209.033,141.120 208.423 C 136.558 207.056,133.840 201.555,133.008 192.000 C 132.434 185.413,131.689 183.060,129.798 181.864 C 124.969 178.809,123.000 172.300,123.001 159.400 C 123.002 143.696,124.572 138.369,130.016 135.592 C 131.711 134.727,131.743 134.631,132.965 126.600 C 134.108 119.094,136.575 114.603,140.560 112.777 C 143.068 111.629,145.195 109.147,145.204 107.358 C 145.219 104.367,148.294 100.941,152.000 99.786 C 156.311 98.442,159.041 96.949,159.584 95.639 C 160.164 94.239,163.133 91.367,164.722 90.670 C 165.315 90.410,166.262 89.884,166.826 89.501 C 171.371 86.418,203.935 84.919,222.000 86.962 M195.200 141.223 C 192.890 141.376,190.449 141.524,189.776 141.551 C 187.707 141.634,187.187 142.344,186.563 145.945 C 185.905 149.736,184.943 151.872,183.254 153.293 L 182.074 154.286 182.602 156.843 C 182.893 158.249,183.339 160.800,183.594 162.511 C 183.933 164.786,184.310 165.893,184.995 166.633 C 186.337 168.080,187.464 170.670,188.041 173.633 C 188.711 177.068,188.632 177.020,194.800 177.734 C 200.790 178.427,205.357 177.935,206.155 176.509 C 206.852 175.263,209.672 172.431,210.467 172.179 C 210.903 172.040,211.595 171.144,212.006 170.186 C 212.416 169.229,213.448 167.760,214.299 166.923 C 215.628 165.616,215.917 165.003,216.344 162.600 C 216.618 161.060,217.205 158.566,217.650 157.058 L 218.459 154.316 217.613 153.724 C 215.315 152.114,213.912 149.240,213.391 145.070 C 213.011 142.026,212.461 141.690,207.392 141.403 C 205.197 141.279,202.500 141.124,201.400 141.060 C 200.300 140.996,197.510 141.069,195.200 141.223 M250.395 202.479 C 255.705 203.488,256.851 206.691,255.874 217.800 C 254.842 229.547,253.224 232.483,247.258 233.437 C 245.444 233.727,245.441 233.734,244.988 238.600 C 243.870 250.595,241.831 255.077,236.883 256.415 C 234.372 257.094,234.000 257.443,234.000 259.125 C 234.000 260.614,232.721 269.401,231.951 273.200 C 231.449 275.680,230.396 277.974,229.368 278.826 C 228.989 279.141,227.995 280.324,227.160 281.454 C 226.325 282.584,225.029 283.888,224.280 284.351 C 222.828 285.248,221.948 288.026,220.789 295.370 C 220.100 299.740,217.440 304.443,214.167 307.077 C 213.400 307.695,211.994 308.874,211.044 309.697 C 206.405 313.718,193.143 314.115,189.747 310.336 C 189.336 309.878,188.083 308.916,186.962 308.197 C 183.037 305.679,179.926 300.250,179.016 294.331 C 178.701 292.279,178.138 288.620,177.766 286.200 C 177.007 281.266,176.441 280.284,173.921 279.529 C 168.755 277.981,166.778 272.055,166.750 258.034 C 166.739 252.154,168.127 246.800,169.664 246.800 C 169.869 246.800,171.190 245.675,172.600 244.300 C 179.791 237.289,180.163 237.052,185.400 236.154 C 190.293 235.315,191.316 234.731,192.378 232.167 C 193.466 229.542,195.976 227.200,198.680 226.285 C 199.736 225.928,201.336 225.368,202.236 225.042 C 203.136 224.715,205.476 224.243,207.436 223.992 C 212.203 223.382,212.634 223.179,212.922 221.402 C 213.616 217.126,215.859 214.921,220.802 213.657 C 225.819 212.374,227.019 211.679,228.495 209.203 C 230.573 205.717,235.417 203.215,241.996 202.230 C 245.464 201.710,246.516 201.741,250.395 202.479 " stroke="none" fill="#040404" fillRule="evenodd"></path></g></svg>