<svg id="svg" version="1.1" xmlns="http://www.w3.org/2000/svg" xmlns:xlink="http://www.w3.org/1999/xlink" width="400" height="400" viewBox="0, 0, 400,400"><g id="svgg"><path id="path0" d="M190.800 93.601 C 186.606 93.939,179.879 96.291,177.441 98.270 C 174.114 100.971,171.026 102.810,168.394 103.657 C 164.953 104.766,162.547 106.521,159.965 109.806 C 158.837 111.242,157.124 112.880,156.158 113.446 C 153.834 114.807,149.933 119.109,149.259 121.051 C 148.414 123.489,146.144 126.690,144.331 128.004 C 141.910 129.758,141.591 130.391,140.113 136.372 C 136.472 151.108,136.381 168.264,139.870 182.000 C 141.668 189.076,141.809 189.398,144.336 192.147 C 146.926 194.965,148.113 197.481,150.590 205.400 C 153.100 213.421,153.461 214.208,155.881 216.924 C 158.192 219.516,160.380 224.479,162.182 231.211 C 163.405 235.781,165.188 239.647,166.996 241.649 C 169.306 244.206,173.200 253.244,173.200 256.050 C 173.200 257.396,176.934 264.234,178.760 266.232 C 180.879 268.551,182.645 272.431,183.985 277.714 C 185.043 281.887,187.523 287.068,189.800 289.864 C 192.240 292.860,193.411 295.237,194.560 299.530 C 195.638 303.557,196.328 305.039,198.357 307.678 C 200.073 309.912,199.648 309.969,206.418 306.585 C 212.265 303.662,211.521 304.741,215.087 294.010 C 218.133 284.844,218.533 283.994,221.158 281.122 C 223.333 278.743,226.339 272.160,227.976 266.196 C 229.007 262.437,230.368 259.664,232.586 256.800 C 235.377 253.197,237.404 248.750,239.059 242.600 C 240.176 238.448,242.645 233.202,244.541 230.954 C 246.110 229.093,247.570 225.680,249.227 220.000 C 250.790 214.638,253.863 208.168,255.906 205.937 C 257.956 203.698,258.919 201.755,260.156 197.362 C 262.606 188.661,265.070 182.894,268.007 178.984 C 271.993 173.679,271.742 145.257,267.669 140.618 C 266.224 138.972,265.109 136.906,263.787 133.427 C 263.280 132.092,261.965 129.110,260.865 126.800 C 259.765 124.490,258.601 121.953,258.278 121.161 C 257.851 120.114,256.923 119.211,254.863 117.842 C 251.653 115.708,249.391 113.312,247.615 110.165 C 246.446 108.094,246.188 107.900,241.610 105.637 C 238.979 104.337,236.325 102.921,235.713 102.490 C 235.101 102.059,233.581 101.211,232.335 100.606 C 231.089 100.000,229.255 98.831,228.260 98.009 C 223.338 93.942,208.383 92.182,190.800 93.601 M206.712 127.568 L 211.623 128.300 213.912 130.465 C 215.170 131.656,218.540 134.183,221.400 136.081 C 227.926 140.411,229.090 141.979,232.246 150.700 C 236.208 161.646,231.638 177.801,223.200 182.681 C 219.186 185.002,213.717 188.657,213.114 189.422 C 212.146 190.648,210.900 191.050,205.121 192.001 L 200.041 192.837 198.403 192.001 C 197.501 191.542,196.073 190.541,195.228 189.778 C 194.384 189.015,192.277 187.757,190.546 186.983 C 183.524 183.841,181.516 182.187,179.232 177.664 C 178.555 176.323,176.954 174.182,175.673 172.905 C 171.797 169.041,171.200 167.293,171.200 159.811 C 171.200 152.399,171.597 151.275,175.793 146.807 C 177.184 145.326,178.791 143.123,179.364 141.912 C 180.949 138.561,183.951 135.982,189.034 133.602 C 191.398 132.496,193.595 131.214,193.918 130.753 C 194.909 129.338,199.198 126.798,200.562 126.818 C 201.243 126.828,204.010 127.166,206.712 127.568 " stroke="none" fill="#e1c019" fillRule="evenodd"></path><path id="path1" d="M120.400 2.753 L 120.400 5.506 111.100 5.769 C 96.929 6.171,97.776 5.743,97.352 12.711 L 97.080 17.200 92.640 17.206 C 77.106 17.228,75.388 18.018,74.839 25.391 L 74.600 28.600 69.664 28.800 C 63.485 29.050,63.202 29.275,63.196 33.944 C 63.193 35.625,63.084 37.648,62.953 38.441 L 62.714 39.882 58.240 40.122 C 51.529 40.482,51.600 40.406,51.600 47.193 L 51.600 51.535 46.613 51.667 C 40.225 51.837,40.439 51.632,40.125 57.882 L 39.883 62.702 37.841 62.948 C 36.719 63.083,34.810 63.197,33.600 63.202 C 29.153 63.220,29.133 63.247,28.825 69.787 L 28.600 74.574 24.921 75.027 C 18.256 75.849,17.200 78.291,17.200 92.877 L 17.200 97.113 12.769 97.402 C 6.025 97.843,5.871 98.185,5.618 113.300 C 5.600 114.393,5.583 114.400,2.800 114.400 L 0.000 114.400 0.000 200.000 L 0.000 285.600 2.800 285.600 C 5.583 285.600,5.600 285.607,5.618 286.700 C 5.871 301.806,6.029 302.158,12.747 302.597 L 17.157 302.885 17.303 307.942 C 17.672 320.753,19.070 323.562,25.576 324.565 L 28.600 325.032 28.805 330.107 C 29.070 336.664,28.915 336.497,35.105 336.848 C 40.681 337.164,39.832 336.280,40.123 342.069 C 40.440 348.375,40.220 348.163,46.613 348.333 L 51.600 348.465 51.600 352.383 C 51.600 359.582,51.521 359.495,58.378 359.864 L 63.200 360.123 63.200 364.002 C 63.200 370.709,63.716 371.194,70.861 371.198 L 74.721 371.200 74.992 373.700 C 75.532 378.678,76.335 380.485,78.349 381.255 C 80.100 381.924,88.159 382.794,92.645 382.797 L 97.091 382.800 97.376 387.054 C 97.818 393.656,98.168 393.992,104.600 393.999 C 106.360 394.001,110.635 394.120,114.100 394.264 L 120.400 394.525 120.400 397.263 L 120.400 400.000 200.000 400.000 L 279.600 400.000 279.600 397.263 L 279.600 394.525 285.900 394.264 C 289.365 394.120,293.640 394.001,295.400 393.999 C 301.832 393.992,302.182 393.656,302.624 387.054 L 302.909 382.800 307.333 382.800 C 322.301 382.800,324.456 381.819,325.100 374.713 L 325.400 371.400 330.294 371.192 C 336.640 370.921,336.499 371.057,336.848 364.895 C 336.994 362.313,337.133 360.183,337.157 360.161 C 337.181 360.140,339.233 360.013,341.718 359.880 C 348.478 359.518,348.400 359.600,348.400 352.807 L 348.400 348.465 353.387 348.333 C 359.775 348.163,359.561 348.368,359.875 342.118 L 360.117 337.298 362.159 337.052 C 363.281 336.917,365.190 336.803,366.400 336.798 C 370.847 336.780,370.867 336.753,371.175 330.213 L 371.400 325.426 375.079 324.973 C 381.742 324.151,382.800 321.707,382.800 307.139 L 382.800 302.920 387.289 302.648 C 393.733 302.256,394.000 301.968,394.000 295.406 C 394.000 293.594,394.114 291.277,394.254 290.256 L 394.509 288.400 397.254 288.400 L 400.000 288.400 400.000 200.000 L 400.000 111.600 397.254 111.600 L 394.509 111.600 394.254 109.744 C 394.114 108.723,394.000 106.215,394.000 104.170 C 394.000 97.999,393.705 97.702,387.210 97.330 L 382.800 97.078 382.794 92.639 C 382.772 77.106,381.981 75.388,374.609 74.839 L 371.400 74.600 371.200 69.519 C 371.073 66.291,370.821 64.260,370.510 63.949 C 370.109 63.549,364.827 62.926,360.959 62.822 C 360.164 62.801,360.105 62.532,359.892 57.911 C 359.598 51.529,359.673 51.600,353.188 51.600 L 348.465 51.600 348.333 46.613 C 348.163 40.253,348.380 40.478,342.133 40.142 L 337.293 39.882 337.046 38.085 C 336.911 37.097,336.800 35.073,336.800 33.588 C 336.800 29.335,336.399 29.033,330.537 28.863 C 325.115 28.706,325.215 28.773,325.206 25.277 C 325.188 17.976,323.610 17.255,307.561 17.212 L 302.922 17.200 302.667 12.739 C 302.265 5.720,303.102 6.150,289.100 5.769 L 279.600 5.510 279.600 2.755 L 279.600 0.000 200.000 0.000 L 120.400 0.000 120.400 2.753 M222.800 10.999 C 232.536 12.155,243.019 14.066,243.780 14.822 C 243.989 15.030,244.458 15.200,244.822 15.200 C 245.185 15.200,245.992 15.672,246.615 16.249 C 247.237 16.826,248.928 17.698,250.373 18.188 C 252.955 19.063,254.197 19.380,266.186 22.224 C 272.759 23.783,275.306 24.935,277.464 27.323 C 278.936 28.953,286.470 32.838,292.000 34.820 C 295.426 36.048,297.206 37.187,298.759 39.148 C 299.755 40.406,301.151 41.302,305.118 43.232 C 309.677 45.449,310.520 46.030,313.309 48.880 C 315.019 50.627,318.709 53.751,321.509 55.821 C 327.783 60.460,327.874 60.540,329.669 63.005 C 331.384 65.360,334.954 68.808,337.866 70.919 C 339.002 71.744,340.306 73.053,340.764 73.830 C 342.279 76.397,347.690 82.952,350.809 86.000 C 353.687 88.811,357.200 94.484,357.200 96.319 C 357.200 97.190,359.727 100.658,360.818 101.285 C 362.415 102.201,363.938 104.431,365.039 107.467 C 367.826 115.152,370.819 121.104,372.682 122.668 C 375.333 124.895,377.436 130.481,379.207 140.000 C 380.151 145.079,382.560 152.800,383.199 152.800 C 385.132 152.800,388.458 168.113,389.106 180.000 C 389.870 194.030,389.457 219.925,388.343 227.800 C 387.907 230.880,387.453 234.120,387.333 235.000 C 387.029 237.242,384.907 243.561,383.975 245.000 C 382.396 247.440,380.254 253.980,379.391 259.000 C 377.791 268.308,375.765 273.825,372.848 276.815 C 371.208 278.497,370.188 280.002,369.401 281.902 C 368.786 283.386,368.051 285.140,367.769 285.800 C 367.486 286.460,366.504 288.890,365.586 291.200 C 364.059 295.042,363.673 295.639,361.055 298.200 C 359.304 299.914,357.901 301.698,357.439 302.800 C 354.845 308.988,354.349 309.787,351.240 312.789 C 349.525 314.445,346.191 318.458,343.832 321.706 C 340.739 325.964,338.797 328.213,336.871 329.765 C 333.953 332.117,330.873 335.236,328.820 337.917 C 327.518 339.618,326.771 340.202,319.000 345.602 C 314.275 348.884,314.569 348.633,312.800 350.913 C 310.882 353.385,309.039 354.593,302.400 357.728 C 300.158 358.787,298.928 359.692,297.532 361.309 C 295.959 363.131,295.138 363.683,292.350 364.796 C 283.818 368.200,278.227 371.064,276.059 373.140 C 273.759 375.344,270.658 376.612,264.600 377.824 C 257.094 379.327,254.293 380.008,250.705 381.202 C 248.562 381.915,246.420 382.836,245.944 383.249 C 245.467 383.662,244.760 384.000,244.372 384.000 C 243.984 384.000,243.603 384.190,243.526 384.422 C 243.449 384.654,243.119 384.887,242.793 384.941 C 242.467 384.995,241.840 385.231,241.400 385.467 C 240.439 385.982,231.845 387.830,231.126 387.676 C 230.976 387.644,229.866 387.800,228.661 388.023 C 219.275 389.758,185.603 389.856,173.000 388.186 C 164.944 387.118,158.031 385.169,156.000 383.394 C 155.128 382.632,145.314 379.760,140.269 378.791 C 130.168 376.851,126.739 375.560,123.948 372.647 C 122.486 371.121,121.181 370.365,116.586 368.381 C 113.514 367.055,110.280 365.631,109.400 365.217 C 108.520 364.803,107.051 364.160,106.136 363.788 C 105.220 363.415,103.561 362.150,102.449 360.977 C 101.023 359.472,99.507 358.413,97.313 357.388 C 95.601 356.589,93.390 355.544,92.400 355.067 C 90.563 354.182,86.621 350.494,86.211 349.275 C 86.085 348.904,84.232 347.485,82.092 346.122 C 77.557 343.236,72.117 338.805,71.146 337.207 C 70.773 336.595,68.191 334.047,65.408 331.547 C 60.803 327.409,53.942 319.284,52.082 315.764 C 51.839 315.305,50.649 314.164,49.438 313.229 C 48.226 312.294,46.736 310.690,46.127 309.665 C 44.486 306.903,43.227 304.280,43.213 303.595 C 43.198 302.885,40.501 298.739,39.768 298.298 C 37.258 296.791,35.218 293.012,31.564 283.102 C 29.940 278.699,29.471 277.911,27.171 275.734 C 24.191 272.913,22.317 267.565,20.607 257.000 C 20.280 254.980,17.205 245.068,16.822 244.800 C 16.407 244.509,14.628 240.525,13.875 238.200 C 10.223 226.924,9.354 186.508,12.383 168.800 C 12.589 167.590,12.855 165.970,12.972 165.200 C 13.089 164.430,13.276 163.440,13.388 163.000 C 13.499 162.560,13.802 161.345,14.062 160.300 C 14.322 159.255,14.684 158.400,14.867 158.400 C 15.050 158.400,15.200 157.950,15.200 157.400 C 15.200 156.850,15.380 156.400,15.600 156.400 C 15.820 156.400,16.000 156.189,16.000 155.931 C 16.000 155.674,16.268 155.167,16.596 154.804 C 17.510 153.795,20.278 144.964,21.001 140.755 C 21.777 136.229,24.255 126.878,24.905 126.018 C 25.162 125.678,26.283 124.410,27.395 123.200 C 28.508 121.990,29.719 120.280,30.085 119.400 C 30.452 118.520,31.543 115.910,32.508 113.600 C 33.474 111.290,34.761 108.194,35.368 106.720 C 36.374 104.281,38.626 101.600,39.669 101.600 C 40.206 101.600,42.563 97.641,43.600 95.000 C 44.971 91.508,46.832 88.759,49.179 86.759 C 50.314 85.792,52.172 83.740,53.307 82.200 C 54.442 80.660,56.580 77.761,58.058 75.758 C 59.631 73.625,61.791 71.294,63.272 70.130 C 64.662 69.037,66.970 66.828,68.400 65.220 C 73.210 59.812,73.490 59.574,83.200 52.686 C 84.630 51.672,86.249 50.171,86.799 49.352 C 88.144 47.345,90.898 45.244,94.021 43.842 C 95.439 43.206,97.226 42.396,97.990 42.042 C 98.755 41.689,100.379 40.367,101.598 39.103 C 103.506 37.126,104.454 36.536,108.407 34.862 C 117.599 30.970,121.342 29.023,122.463 27.549 C 124.443 24.944,132.112 22.063,141.000 20.584 C 145.585 19.821,152.994 17.353,154.282 16.159 C 154.851 15.632,155.615 15.200,155.978 15.200 C 156.342 15.200,156.811 15.050,157.020 14.867 C 157.229 14.685,158.194 14.309,159.165 14.032 C 161.071 13.489,161.470 13.403,164.800 12.815 C 166.010 12.601,167.540 12.329,168.200 12.210 C 172.186 11.489,175.648 11.098,180.600 10.811 C 186.404 10.474,219.629 10.622,222.800 10.999 " stroke="none" fill="#ebf7fa" fillRule="evenodd"></path><path id="path2" d="M195.294 17.598 C 194.355 17.797,193.400 18.076,193.171 18.218 C 192.942 18.359,191.820 18.620,190.677 18.797 C 189.535 18.975,187.266 19.516,185.636 20.001 C 184.006 20.486,181.126 21.206,179.236 21.601 C 169.420 23.652,167.443 23.966,157.800 25.000 C 140.458 26.861,138.049 27.413,136.004 29.995 C 133.707 32.895,127.855 35.738,121.996 36.801 C 118.352 37.462,113.850 39.710,112.880 41.354 C 111.219 44.170,104.675 47.838,99.515 48.845 C 96.237 49.485,94.961 50.473,93.628 53.408 C 92.339 56.245,90.829 57.632,87.800 58.765 C 84.684 59.932,81.770 62.237,80.428 64.598 C 79.123 66.895,78.011 67.997,75.934 69.054 C 73.955 70.061,69.953 73.950,69.149 75.648 C 68.127 77.804,66.538 79.462,64.584 80.408 C 62.469 81.432,59.593 84.975,58.880 87.435 C 58.087 90.174,56.218 92.345,53.628 93.535 C 50.835 94.820,49.818 96.208,48.962 99.905 C 48.305 102.743,46.829 106.056,45.621 107.400 C 45.226 107.840,44.415 108.950,43.820 109.868 C 43.224 110.785,42.067 111.999,41.249 112.566 C 40.340 113.196,39.554 114.180,39.227 115.098 C 38.933 115.924,38.369 117.320,37.974 118.200 C 37.579 119.080,37.052 120.880,36.802 122.200 C 35.727 127.889,33.060 133.676,30.227 136.468 C 27.636 139.023,26.661 143.178,24.987 158.800 C 23.892 169.021,23.608 171.406,23.227 173.600 C 21.987 180.746,21.471 183.412,20.629 187.000 C 18.632 195.516,18.186 199.859,18.964 203.214 C 20.151 208.332,21.752 216.725,22.205 220.200 C 22.348 221.300,22.709 223.460,23.006 225.000 C 23.304 226.540,23.926 231.220,24.390 235.400 C 24.853 239.580,25.485 244.890,25.795 247.200 C 26.105 249.510,26.475 252.570,26.618 254.000 C 27.099 258.820,28.161 261.631,30.118 263.267 C 32.851 265.551,36.208 272.528,37.196 277.978 C 37.915 281.945,39.462 285.225,41.409 286.911 C 44.614 289.688,47.985 295.448,49.212 300.247 C 50.185 304.053,50.551 304.539,53.570 306.048 C 56.404 307.464,57.980 309.329,59.040 312.519 C 59.962 315.297,62.506 318.464,64.334 319.110 C 66.254 319.788,67.854 321.365,69.091 323.800 C 70.442 326.459,73.221 329.139,76.367 330.815 C 78.817 332.120,81.200 334.796,81.200 336.241 C 81.200 337.193,85.161 340.039,87.662 340.884 C 90.681 341.903,93.535 344.536,94.361 347.063 C 95.075 349.250,96.362 350.134,100.017 350.947 C 102.811 351.568,105.745 352.803,109.200 354.810 C 109.970 355.258,111.590 356.681,112.800 357.974 C 115.522 360.881,118.120 362.168,123.400 363.227 C 128.735 364.297,134.563 367.036,136.964 369.603 C 139.781 372.614,140.545 372.789,161.400 375.181 C 167.120 375.838,172.779 376.562,173.976 376.791 C 175.173 377.021,178.021 377.486,180.304 377.825 C 183.924 378.362,191.715 379.838,196.000 380.798 C 196.770 380.970,198.000 381.334,198.733 381.606 C 199.832 382.014,200.497 381.990,202.533 381.466 C 203.890 381.117,206.646 380.563,208.657 380.235 C 210.668 379.907,213.728 379.283,215.457 378.847 C 220.086 377.682,224.791 376.945,234.824 375.816 C 245.730 374.588,245.292 374.644,252.200 373.606 C 259.843 372.457,261.531 371.886,262.979 369.961 C 264.943 367.350,272.395 364.037,278.600 363.016 C 280.392 362.721,286.400 360.052,286.400 359.551 C 286.400 357.377,294.106 352.536,299.688 351.203 C 303.701 350.244,304.681 349.565,306.092 346.766 C 307.467 344.038,309.854 341.857,312.176 341.207 C 314.419 340.579,318.704 337.505,319.217 336.156 C 319.904 334.349,321.705 332.356,323.660 331.240 C 326.152 329.817,330.277 325.868,330.950 324.261 C 331.768 322.309,333.447 320.545,335.376 319.612 C 337.487 318.590,340.003 315.473,341.137 312.476 C 342.326 309.337,343.700 307.787,346.508 306.421 C 349.516 304.957,350.172 304.108,350.979 300.628 C 352.091 295.832,353.737 293.087,358.200 288.581 C 360.482 286.277,362.357 282.165,363.372 277.238 C 364.289 272.789,367.275 267.110,369.982 264.664 C 371.985 262.854,373.020 259.639,373.800 252.800 C 376.603 228.235,377.315 223.997,380.228 214.550 C 380.983 212.102,381.600 209.566,381.600 208.913 C 381.600 208.261,381.868 206.844,382.196 205.764 C 382.544 204.617,382.791 202.220,382.791 200.000 C 382.791 197.780,382.544 195.383,382.196 194.236 C 381.868 193.156,381.600 191.705,381.600 191.011 C 381.600 190.318,381.082 188.217,380.448 186.343 C 378.137 179.506,376.576 171.062,374.986 156.800 C 373.214 140.908,372.354 136.991,370.319 135.542 C 367.702 133.679,364.498 127.728,363.226 122.372 C 361.992 117.177,360.424 113.581,358.599 111.764 C 354.193 107.379,352.376 104.432,351.281 99.897 C 350.512 96.712,349.041 94.150,347.800 93.835 C 345.438 93.235,343.282 91.263,342.004 88.536 C 339.788 83.805,337.797 81.217,335.640 80.266 C 333.981 79.534,330.800 76.304,330.800 75.352 C 330.800 74.683,325.285 69.200,324.613 69.200 C 323.510 69.200,320.942 66.820,319.945 64.874 C 318.670 62.385,315.714 59.931,312.576 58.757 C 309.640 57.658,307.916 56.093,306.761 53.474 C 305.680 51.025,303.749 49.326,301.646 48.974 C 296.299 48.078,289.796 44.643,287.673 41.594 C 286.354 39.699,281.802 37.497,277.268 36.560 C 271.680 35.406,268.026 33.583,264.711 30.297 C 262.761 28.364,257.792 26.399,254.855 26.401 C 254.275 26.401,251.190 26.051,248.000 25.623 C 244.810 25.194,239.590 24.552,236.400 24.196 C 230.136 23.497,218.716 21.317,214.200 19.959 C 212.660 19.496,210.500 18.973,209.400 18.797 C 208.300 18.621,206.860 18.262,206.200 18.000 C 204.662 17.388,197.519 17.124,195.294 17.598 M212.400 85.236 C 212.950 85.479,216.010 86.019,219.200 86.436 C 232.781 88.211,238.647 90.606,242.136 95.800 C 243.478 97.799,245.155 98.909,247.863 99.592 C 251.706 100.560,253.867 102.840,256.200 108.384 C 256.420 108.907,256.870 109.469,257.200 109.633 C 257.530 109.797,258.848 110.416,260.129 111.009 C 262.905 112.294,264.541 114.322,265.428 117.574 C 266.596 121.862,268.308 124.892,270.276 126.156 C 275.414 129.457,277.760 138.457,278.627 158.200 C 279.051 167.871,276.895 183.961,274.453 189.346 C 273.452 191.555,269.803 195.600,268.812 195.600 C 268.250 195.600,266.825 199.996,266.184 203.706 C 264.731 212.121,262.467 216.713,258.675 218.935 C 256.511 220.203,255.865 221.651,254.986 227.200 C 253.214 238.378,250.902 243.501,246.876 245.169 C 245.882 245.580,245.608 245.979,245.384 247.337 C 245.233 248.251,244.523 250.980,243.806 253.400 C 243.089 255.820,242.291 258.679,242.032 259.754 C 241.108 263.592,239.255 266.443,236.109 268.871 C 234.949 269.765,234.000 270.806,234.000 271.183 C 234.000 271.559,233.389 273.833,232.641 276.234 C 231.894 278.635,231.059 281.590,230.786 282.800 C 230.008 286.254,228.547 288.772,225.553 291.817 C 222.625 294.797,221.171 298.205,219.606 305.764 C 218.125 312.917,212.353 318.436,204.119 320.569 C 198.082 322.133,195.950 320.800,191.691 312.800 C 190.578 310.710,189.441 308.190,189.163 307.200 C 188.807 305.929,187.932 304.635,186.188 302.800 C 183.367 299.830,182.343 298.027,181.261 294.123 C 180.841 292.606,180.052 290.112,179.509 288.582 C 178.965 287.052,178.188 284.491,177.781 282.892 C 177.094 280.190,176.922 279.913,175.360 278.998 C 172.094 277.084,169.139 270.431,166.817 259.761 C 166.322 257.490,165.799 256.055,165.373 255.800 C 162.007 253.788,160.111 251.657,159.076 248.725 C 157.795 245.091,156.753 241.259,156.049 237.588 C 155.145 232.875,154.738 232.095,152.082 229.986 C 148.971 227.515,147.101 223.381,145.772 216.039 C 144.529 209.175,143.480 206.671,140.680 203.891 C 137.570 200.802,135.426 196.699,134.570 192.200 C 133.303 185.534,131.459 179.014,130.682 178.450 C 126.312 175.284,123.935 157.461,126.783 149.213 C 127.969 145.780,129.808 142.184,130.714 141.529 C 131.363 141.059,132.998 135.133,134.226 128.800 C 134.963 124.997,136.075 123.075,139.541 119.614 C 141.422 117.736,143.395 115.338,143.924 114.285 C 144.454 113.231,145.726 111.431,146.751 110.285 C 147.776 109.138,148.882 107.674,149.208 107.031 C 149.533 106.388,150.659 105.218,151.709 104.431 C 152.760 103.644,154.470 102.295,155.509 101.433 C 156.549 100.571,158.570 99.347,160.000 98.711 C 164.312 96.796,164.470 96.685,166.378 94.230 C 169.733 89.915,181.411 86.000,190.931 86.000 C 191.908 86.000,193.674 85.709,194.854 85.353 C 196.034 84.998,197.694 84.496,198.543 84.239 C 200.303 83.706,210.618 84.448,212.400 85.236 M197.800 139.263 C 196.700 139.713,194.095 140.518,192.010 141.051 C 187.437 142.220,187.856 141.821,186.597 146.206 C 186.030 148.183,184.943 150.817,184.183 152.060 L 182.800 154.321 182.800 159.946 C 182.800 165.443,182.826 165.614,183.939 167.368 C 185.172 169.313,185.993 171.327,186.995 174.866 C 187.801 177.711,188.009 177.873,192.067 178.826 C 193.900 179.256,196.424 179.984,197.675 180.443 C 199.801 181.224,200.327 181.254,205.675 180.899 L 211.400 180.519 214.000 178.836 C 215.430 177.910,216.846 176.668,217.147 176.076 C 217.894 174.605,219.909 172.500,221.620 171.402 C 227.248 167.792,227.247 152.165,221.618 148.611 C 219.945 147.556,217.387 144.820,217.035 143.711 C 216.899 143.283,215.571 142.101,214.083 141.085 L 211.377 139.236 206.230 138.818 C 199.837 138.299,200.201 138.280,197.800 139.263 " stroke="none" fill="#0595cc" fillRule="evenodd"></path><path id="path3" d="M180.600 10.811 C 175.648 11.098,172.186 11.489,168.200 12.210 C 167.540 12.329,166.010 12.601,164.800 12.815 C 161.470 13.403,161.071 13.489,159.165 14.032 C 158.194 14.309,157.229 14.685,157.020 14.867 C 156.811 15.050,156.342 15.200,155.978 15.200 C 155.615 15.200,154.851 15.632,154.282 16.159 C 152.994 17.353,145.585 19.821,141.000 20.584 C 132.112 22.063,124.443 24.944,122.463 27.549 C 121.342 29.023,117.599 30.970,108.407 34.862 C 104.454 36.536,103.506 37.126,101.598 39.103 C 100.379 40.367,98.755 41.689,97.990 42.042 C 97.226 42.396,95.439 43.206,94.021 43.842 C 90.898 45.244,88.144 47.345,86.799 49.352 C 86.249 50.171,84.630 51.672,83.200 52.686 C 73.490 59.574,73.210 59.812,68.400 65.220 C 66.970 66.828,64.662 69.037,63.272 70.130 C 61.791 71.294,59.631 73.625,58.058 75.758 C 56.580 77.761,54.442 80.660,53.307 82.200 C 52.172 83.740,50.314 85.792,49.179 86.759 C 46.832 88.759,44.971 91.508,43.600 95.000 C 42.563 97.641,40.206 101.600,39.669 101.600 C 38.626 101.600,36.374 104.281,35.368 106.720 C 34.761 108.194,33.474 111.290,32.508 113.600 C 31.543 115.910,30.452 118.520,30.085 119.400 C 29.719 120.280,28.508 121.990,27.395 123.200 C 26.283 124.410,25.162 125.678,24.905 126.018 C 24.255 126.878,21.777 136.229,21.001 140.755 C 20.278 144.964,17.510 153.795,16.596 154.804 C 16.268 155.167,16.000 155.674,16.000 155.931 C 16.000 156.189,15.820 156.400,15.600 156.400 C 15.380 156.400,15.200 156.850,15.200 157.400 C 15.200 157.950,15.050 158.400,14.867 158.400 C 14.684 158.400,14.322 159.255,14.062 160.300 C 13.802 161.345,13.499 162.560,13.388 163.000 C 13.276 163.440,13.089 164.430,12.972 165.200 C 12.855 165.970,12.589 167.590,12.383 168.800 C 9.354 186.508,10.223 226.924,13.875 238.200 C 14.628 240.525,16.407 244.509,16.822 244.800 C 17.205 245.068,20.280 254.980,20.607 257.000 C 22.317 267.565,24.191 272.913,27.171 275.734 C 29.471 277.911,29.940 278.699,31.564 283.102 C 35.218 293.012,37.258 296.791,39.768 298.298 C 40.501 298.739,43.198 302.885,43.213 303.595 C 43.227 304.280,44.486 306.903,46.127 309.665 C 46.736 310.690,48.226 312.294,49.438 313.229 C 50.649 314.164,51.839 315.305,52.082 315.764 C 53.942 319.284,60.803 327.409,65.408 331.547 C 68.191 334.047,70.773 336.595,71.146 337.207 C 72.117 338.805,77.557 343.236,82.092 346.122 C 84.232 347.485,86.085 348.904,86.211 349.275 C 86.621 350.494,90.563 354.182,92.400 355.067 C 93.390 355.544,95.601 356.589,97.313 357.388 C 99.507 358.413,101.023 359.472,102.449 360.977 C 103.561 362.150,105.220 363.415,106.136 363.788 C 107.051 364.160,108.520 364.803,109.400 365.217 C 110.280 365.631,113.514 367.055,116.586 368.381 C 121.181 370.365,122.486 371.121,123.948 372.647 C 126.739 375.560,130.168 376.851,140.269 378.791 C 145.314 379.760,155.128 382.632,156.000 383.394 C 158.031 385.169,164.944 387.118,173.000 388.186 C 185.603 389.856,219.275 389.758,228.661 388.023 C 229.866 387.800,230.976 387.644,231.126 387.676 C 231.845 387.830,240.439 385.982,241.400 385.467 C 241.840 385.231,242.467 384.995,242.793 384.941 C 243.119 384.887,243.449 384.654,243.526 384.422 C 243.603 384.190,243.984 384.000,244.372 384.000 C 244.760 384.000,245.467 383.662,245.944 383.249 C 246.420 382.836,248.562 381.915,250.705 381.202 C 254.293 380.008,257.094 379.327,264.600 377.824 C 270.658 376.612,273.759 375.344,276.059 373.140 C 278.227 371.064,283.818 368.200,292.350 364.796 C 295.138 363.683,295.959 363.131,297.532 361.309 C 298.928 359.692,300.158 358.787,302.400 357.728 C 309.039 354.593,310.882 353.385,312.800 350.913 C 314.569 348.633,314.275 348.884,319.000 345.602 C 326.771 340.202,327.518 339.618,328.820 337.917 C 330.873 335.236,333.953 332.117,336.871 329.765 C 338.797 328.213,340.739 325.964,343.832 321.706 C 346.191 318.458,349.525 314.445,351.240 312.789 C 354.349 309.787,354.845 308.988,357.439 302.800 C 357.901 301.698,359.304 299.914,361.055 298.200 C 363.673 295.639,364.059 295.042,365.586 291.200 C 366.504 288.890,367.486 286.460,367.769 285.800 C 368.051 285.140,368.786 283.386,369.401 281.902 C 370.188 280.002,371.208 278.497,372.848 276.815 C 375.765 273.825,377.791 268.308,379.391 259.000 C 380.254 253.980,382.396 247.440,383.975 245.000 C 384.907 243.561,387.029 237.242,387.333 235.000 C 387.453 234.120,387.907 230.880,388.343 227.800 C 389.457 219.925,389.870 194.030,389.106 180.000 C 388.458 168.113,385.132 152.800,383.199 152.800 C 382.560 152.800,380.151 145.079,379.207 140.000 C 377.436 130.481,375.333 124.895,372.682 122.668 C 370.819 121.104,367.826 115.152,365.039 107.467 C 363.938 104.431,362.415 102.201,360.818 101.285 C 359.727 100.658,357.200 97.190,357.200 96.319 C 357.200 94.484,353.687 88.811,350.809 86.000 C 347.690 82.952,342.279 76.397,340.764 73.830 C 340.306 73.053,339.002 71.744,337.866 70.919 C 334.954 68.808,331.384 65.360,329.669 63.005 C 327.874 60.540,327.783 60.460,321.509 55.821 C 318.709 53.751,315.019 50.627,313.309 48.880 C 310.520 46.030,309.677 45.449,305.118 43.232 C 301.151 41.302,299.755 40.406,298.759 39.148 C 297.206 37.187,295.426 36.048,292.000 34.820 C 286.470 32.838,278.936 28.953,277.464 27.323 C 275.306 24.935,272.759 23.783,266.186 22.224 C 254.197 19.380,252.955 19.063,250.373 18.188 C 248.928 17.698,247.237 16.826,246.615 16.249 C 245.992 15.672,245.185 15.200,244.822 15.200 C 244.458 15.200,243.989 15.030,243.780 14.822 C 243.019 14.066,232.536 12.155,222.800 10.999 C 219.629 10.622,186.404 10.474,180.600 10.811 M206.200 18.000 C 206.860 18.262,208.300 18.621,209.400 18.797 C 210.500 18.973,212.660 19.496,214.200 19.959 C 218.716 21.317,230.136 23.497,236.400 24.196 C 239.590 24.552,244.810 25.194,248.000 25.623 C 251.190 26.051,254.275 26.401,254.855 26.401 C 257.792 26.399,262.761 28.364,264.711 30.297 C 268.026 33.583,271.680 35.406,277.268 36.560 C 281.802 37.497,286.354 39.699,287.673 41.594 C 289.796 44.643,296.299 48.078,301.646 48.974 C 303.749 49.326,305.680 51.025,306.761 53.474 C 307.916 56.093,309.640 57.658,312.576 58.757 C 315.714 59.931,318.670 62.385,319.945 64.874 C 320.942 66.820,323.510 69.200,324.613 69.200 C 325.285 69.200,330.800 74.683,330.800 75.352 C 330.800 76.304,333.981 79.534,335.640 80.266 C 337.797 81.217,339.788 83.805,342.004 88.536 C 343.282 91.263,345.438 93.235,347.800 93.835 C 349.041 94.150,350.512 96.712,351.281 99.897 C 352.376 104.432,354.193 107.379,358.599 111.764 C 360.424 113.581,361.992 117.177,363.226 122.372 C 364.498 127.728,367.702 133.679,370.319 135.542 C 372.354 136.991,373.214 140.908,374.986 156.800 C 376.576 171.062,378.137 179.506,380.448 186.343 C 381.082 188.217,381.600 190.318,381.600 191.011 C 381.600 191.705,381.868 193.156,382.196 194.236 C 382.544 195.383,382.791 197.780,382.791 200.000 C 382.791 202.220,382.544 204.617,382.196 205.764 C 381.868 206.844,381.600 208.261,381.600 208.913 C 381.600 209.566,380.983 212.102,380.228 214.550 C 377.315 223.997,376.603 228.235,373.800 252.800 C 373.020 259.639,371.985 262.854,369.982 264.664 C 367.275 267.110,364.289 272.789,363.372 277.238 C 362.357 282.165,360.482 286.277,358.200 288.581 C 353.737 293.087,352.091 295.832,350.979 300.628 C 350.172 304.108,349.516 304.957,346.508 306.421 C 343.700 307.787,342.326 309.337,341.137 312.476 C 340.003 315.473,337.487 318.590,335.376 319.612 C 333.447 320.545,331.768 322.309,330.950 324.261 C 330.277 325.868,326.152 329.817,323.660 331.240 C 321.705 332.356,319.904 334.349,319.217 336.156 C 318.704 337.505,314.419 340.579,312.176 341.207 C 309.854 341.857,307.467 344.038,306.092 346.766 C 304.681 349.565,303.701 350.244,299.688 351.203 C 294.106 352.536,286.400 357.377,286.400 359.551 C 286.400 360.052,280.392 362.721,278.600 363.016 C 272.395 364.037,264.943 367.350,262.979 369.961 C 261.531 371.886,259.843 372.457,252.200 373.606 C 245.292 374.644,245.730 374.588,234.824 375.816 C 224.791 376.945,220.086 377.682,215.457 378.847 C 213.728 379.283,210.668 379.907,208.657 380.235 C 206.646 380.563,203.890 381.117,202.533 381.466 C 200.497 381.990,199.832 382.014,198.733 381.606 C 198.000 381.334,196.770 380.970,196.000 380.798 C 191.715 379.838,183.924 378.362,180.304 377.825 C 178.021 377.486,175.173 377.021,173.976 376.791 C 172.779 376.562,167.120 375.838,161.400 375.181 C 140.545 372.789,139.781 372.614,136.964 369.603 C 134.563 367.036,128.735 364.297,123.400 363.227 C 118.120 362.168,115.522 360.881,112.800 357.974 C 111.590 356.681,109.970 355.258,109.200 354.810 C 105.745 352.803,102.811 351.568,100.017 350.947 C 96.362 350.134,95.075 349.250,94.361 347.063 C 93.535 344.536,90.681 341.903,87.662 340.884 C 85.161 340.039,81.200 337.193,81.200 336.241 C 81.200 334.796,78.817 332.120,76.367 330.815 C 73.221 329.139,70.442 326.459,69.091 323.800 C 67.854 321.365,66.254 319.788,64.334 319.110 C 62.506 318.464,59.962 315.297,59.040 312.519 C 57.980 309.329,56.404 307.464,53.570 306.048 C 50.551 304.539,50.185 304.053,49.212 300.247 C 47.985 295.448,44.614 289.688,41.409 286.911 C 39.462 285.225,37.915 281.945,37.196 277.978 C 36.208 272.528,32.851 265.551,30.118 263.267 C 28.161 261.631,27.099 258.820,26.618 254.000 C 26.475 252.570,26.105 249.510,25.795 247.200 C 25.485 244.890,24.853 239.580,24.390 235.400 C 23.926 231.220,23.304 226.540,23.006 225.000 C 22.709 223.460,22.348 221.300,22.205 220.200 C 21.752 216.725,20.151 208.332,18.964 203.214 C 18.186 199.859,18.632 195.516,20.629 187.000 C 21.471 183.412,21.987 180.746,23.227 173.600 C 23.608 171.406,23.892 169.021,24.987 158.800 C 26.661 143.178,27.636 139.023,30.227 136.468 C 33.060 133.676,35.727 127.889,36.802 122.200 C 37.052 120.880,37.579 119.080,37.974 118.200 C 38.369 117.320,38.933 115.924,39.227 115.098 C 39.554 114.180,40.340 113.196,41.249 112.566 C 42.067 111.999,43.224 110.785,43.820 109.868 C 44.415 108.950,45.226 107.840,45.621 107.400 C 46.829 106.056,48.305 102.743,48.962 99.905 C 49.818 96.208,50.835 94.820,53.628 93.535 C 56.218 92.345,58.087 90.174,58.880 87.435 C 59.593 84.975,62.469 81.432,64.584 80.408 C 66.538 79.462,68.127 77.804,69.149 75.648 C 69.953 73.950,73.955 70.061,75.934 69.054 C 78.011 67.997,79.123 66.895,80.428 64.598 C 81.770 62.237,84.684 59.932,87.800 58.765 C 90.829 57.632,92.339 56.245,93.628 53.408 C 94.961 50.473,96.237 49.485,99.515 48.845 C 104.675 47.838,111.219 44.170,112.880 41.354 C 113.850 39.710,118.352 37.462,121.996 36.801 C 127.855 35.738,133.707 32.895,136.004 29.995 C 138.049 27.413,140.458 26.861,157.800 25.000 C 167.443 23.966,169.420 23.652,179.236 21.601 C 181.126 21.206,184.006 20.486,185.636 20.001 C 187.266 19.516,189.535 18.975,190.677 18.797 C 191.820 18.620,192.942 18.359,193.171 18.218 C 194.835 17.189,203.787 17.040,206.200 18.000 M198.543 84.239 C 197.694 84.496,196.034 84.998,194.854 85.353 C 193.674 85.709,191.908 86.000,190.931 86.000 C 181.411 86.000,169.733 89.915,166.378 94.230 C 164.470 96.685,164.312 96.796,160.000 98.711 C 158.570 99.347,156.549 100.571,155.509 101.433 C 154.470 102.295,152.760 103.644,151.709 104.431 C 150.659 105.218,149.533 106.388,149.208 107.031 C 148.882 107.674,147.776 109.138,146.751 110.285 C 145.726 111.431,144.454 113.231,143.924 114.285 C 143.395 115.338,141.422 117.736,139.541 119.614 C 136.075 123.075,134.963 124.997,134.226 128.800 C 132.998 135.133,131.363 141.059,130.714 141.529 C 129.808 142.184,127.969 145.780,126.783 149.213 C 123.935 157.461,126.312 175.284,130.682 178.450 C 131.459 179.014,133.303 185.534,134.570 192.200 C 135.426 196.699,137.570 200.802,140.680 203.891 C 143.480 206.671,144.529 209.175,145.772 216.039 C 147.101 223.381,148.971 227.515,152.082 229.986 C 154.738 232.095,155.145 232.875,156.049 237.588 C 156.753 241.259,157.795 245.091,159.076 248.725 C 160.111 251.657,162.007 253.788,165.373 255.800 C 165.799 256.055,166.322 257.490,166.817 259.761 C 169.139 270.431,172.094 277.084,175.360 278.998 C 176.922 279.913,177.094 280.190,177.781 282.892 C 178.188 284.491,178.965 287.052,179.509 288.582 C 180.052 290.112,180.841 292.606,181.261 294.123 C 182.343 298.027,183.367 299.830,186.188 302.800 C 187.932 304.635,188.807 305.929,189.163 307.200 C 189.671 309.012,193.023 315.615,194.518 317.748 C 200.193 325.845,217.123 317.758,219.606 305.764 C 221.171 298.205,222.625 294.797,225.553 291.817 C 228.547 288.772,230.008 286.254,230.786 282.800 C 231.059 281.590,231.894 278.635,232.641 276.234 C 233.389 273.833,234.000 271.559,234.000 271.183 C 234.000 270.806,234.949 269.765,236.109 268.871 C 239.255 266.443,241.108 263.592,242.032 259.754 C 242.291 258.679,243.089 255.820,243.806 253.400 C 244.523 250.980,245.233 248.251,245.384 247.337 C 245.608 245.979,245.882 245.580,246.876 245.169 C 250.902 243.501,253.214 238.378,254.986 227.200 C 255.865 221.651,256.511 220.203,258.675 218.935 C 262.467 216.713,264.731 212.121,266.184 203.706 C 266.825 199.996,268.250 195.600,268.812 195.600 C 269.803 195.600,273.452 191.555,274.453 189.346 C 276.895 183.961,279.051 167.871,278.627 158.200 C 277.760 138.457,275.414 129.457,270.276 126.156 C 268.308 124.892,266.596 121.862,265.428 117.574 C 264.541 114.322,262.905 112.294,260.129 111.009 C 258.848 110.416,257.530 109.797,257.200 109.633 C 256.870 109.469,256.420 108.907,256.200 108.384 C 253.867 102.840,251.706 100.560,247.863 99.592 C 245.155 98.909,243.478 97.799,242.136 95.800 C 238.647 90.606,232.781 88.211,219.200 86.436 C 216.010 86.019,212.950 85.479,212.400 85.236 C 210.618 84.448,200.303 83.706,198.543 84.239 M217.483 88.183 C 227.221 89.600,234.329 92.256,237.740 95.754 C 239.510 97.568,242.642 99.701,246.087 101.439 C 249.161 102.989,250.946 104.527,252.428 106.901 C 254.165 109.684,255.733 111.341,258.433 113.246 C 261.228 115.219,261.622 115.774,264.933 122.417 C 266.455 125.471,268.342 128.611,269.259 129.617 C 278.855 140.139,279.074 179.348,269.597 190.142 C 268.013 191.946,266.413 195.530,264.190 202.253 C 262.217 208.217,260.265 212.279,258.225 214.663 C 256.179 217.054,254.209 221.370,252.868 226.400 C 250.748 234.348,249.022 238.371,246.460 241.330 C 245.238 242.743,244.573 244.158,243.388 247.867 C 240.188 257.885,237.767 262.960,234.859 265.744 C 234.202 266.373,233.268 267.993,232.783 269.344 C 227.688 283.536,227.038 284.968,224.408 287.771 C 221.969 290.370,221.778 290.772,218.827 299.564 C 214.765 311.662,213.024 313.513,202.251 317.189 L 199.903 317.990 198.305 316.725 C 195.109 314.193,192.000 309.393,190.682 304.951 C 189.880 302.251,189.004 300.575,187.287 298.455 C 185.715 296.515,182.583 289.771,180.023 282.816 C 177.964 277.220,177.469 276.241,175.641 274.155 C 174.163 272.467,169.689 262.992,168.534 259.103 C 167.705 256.310,165.769 252.513,164.341 250.878 C 162.426 248.686,159.798 242.928,158.017 237.020 C 156.180 230.924,154.925 228.072,152.203 223.800 C 149.727 219.914,148.976 218.225,147.587 213.418 C 145.714 206.938,143.237 201.323,141.084 198.681 C 138.015 194.915,137.067 192.633,134.233 182.198 C 133.456 179.336,132.536 175.466,132.188 173.598 C 131.840 171.729,131.206 169.248,130.778 168.085 C 129.645 165.005,129.646 154.991,130.779 151.915 C 131.208 150.752,131.855 148.180,132.218 146.200 C 133.257 140.526,136.295 129.783,137.568 127.280 C 138.791 124.875,139.328 124.210,141.762 122.082 C 142.591 121.357,144.099 119.288,145.114 117.483 C 148.440 111.568,159.519 101.149,164.964 98.815 C 165.925 98.404,167.945 96.944,169.455 95.571 C 177.426 88.324,197.365 85.256,217.483 88.183 M197.000 136.203 C 195.460 136.937,192.940 137.950,191.400 138.454 C 187.512 139.726,185.726 141.505,183.247 146.576 C 182.166 148.789,180.543 151.438,179.640 152.461 L 178.000 154.323 178.011 160.061 L 178.022 165.800 179.241 166.996 C 180.784 168.512,182.884 171.959,183.994 174.800 C 185.388 178.369,187.469 180.157,191.976 181.658 C 194.079 182.359,196.763 183.358,197.940 183.879 L 200.080 184.825 205.340 184.213 C 208.233 183.876,210.810 183.601,211.066 183.600 C 211.906 183.600,220.970 177.375,222.235 175.930 C 222.914 175.155,224.489 172.527,225.735 170.092 L 228.000 165.664 228.000 160.045 L 228.000 154.425 225.556 149.611 C 222.779 144.138,221.603 142.882,215.274 138.627 L 211.400 136.022 206.062 135.411 C 199.564 134.667,200.371 134.597,197.000 136.203 M206.230 138.818 L 211.377 139.236 214.083 141.085 C 215.571 142.101,216.899 143.283,217.035 143.711 C 217.387 144.820,219.945 147.556,221.618 148.611 C 227.247 152.165,227.248 167.792,221.620 171.402 C 219.909 172.500,217.894 174.605,217.147 176.076 C 216.846 176.668,215.430 177.910,214.000 178.836 L 211.400 180.519 205.675 180.899 C 200.327 181.254,199.801 181.224,197.675 180.443 C 196.424 179.984,193.900 179.256,192.067 178.826 C 188.009 177.873,187.801 177.711,186.995 174.866 C 185.993 171.327,185.172 169.313,183.939 167.368 C 182.826 165.614,182.800 165.443,182.800 159.946 L 182.800 154.321 184.183 152.060 C 184.943 150.817,186.030 148.183,186.597 146.206 C 187.856 141.821,187.437 142.220,192.010 141.051 C 194.095 140.518,196.700 139.713,197.800 139.263 C 200.201 138.280,199.837 138.299,206.230 138.818 " stroke="none" fill="#4ab2cc" fillRule="evenodd"></path><path id="path4" d="M192.200 87.600 C 183.302 88.148,174.056 91.388,169.455 95.571 C 167.945 96.944,165.925 98.404,164.964 98.815 C 159.519 101.149,148.440 111.568,145.114 117.483 C 144.099 119.288,142.591 121.357,141.762 122.082 C 139.328 124.210,138.791 124.875,137.568 127.280 C 136.295 129.783,133.257 140.526,132.218 146.200 C 131.855 148.180,131.208 150.752,130.779 151.915 C 129.646 154.991,129.645 165.005,130.778 168.085 C 131.206 169.248,131.840 171.729,132.188 173.598 C 132.536 175.466,133.456 179.336,134.233 182.198 C 137.067 192.633,138.015 194.915,141.084 198.681 C 143.237 201.323,145.714 206.938,147.587 213.418 C 148.976 218.225,149.727 219.914,152.203 223.800 C 154.925 228.072,156.180 230.924,158.017 237.020 C 159.798 242.928,162.426 248.686,164.341 250.878 C 165.769 252.513,167.705 256.310,168.534 259.103 C 169.689 262.992,174.163 272.467,175.641 274.155 C 177.469 276.241,177.964 277.220,180.023 282.816 C 182.583 289.771,185.715 296.515,187.287 298.455 C 189.004 300.575,189.880 302.251,190.682 304.951 C 192.000 309.393,195.109 314.193,198.305 316.725 L 199.903 317.990 202.251 317.189 C 213.024 313.513,214.765 311.662,218.827 299.564 C 221.778 290.772,221.969 290.370,224.408 287.771 C 227.038 284.968,227.688 283.536,232.783 269.344 C 233.268 267.993,234.202 266.373,234.859 265.744 C 237.767 262.960,240.188 257.885,243.388 247.867 C 244.573 244.158,245.238 242.743,246.460 241.330 C 249.022 238.371,250.748 234.348,252.868 226.400 C 254.209 221.370,256.179 217.054,258.225 214.663 C 260.265 212.279,262.217 208.217,264.190 202.253 C 266.413 195.530,268.013 191.946,269.597 190.142 C 279.074 179.348,278.855 140.139,269.259 129.617 C 268.342 128.611,266.455 125.471,264.933 122.417 C 261.622 115.774,261.228 115.219,258.433 113.246 C 255.733 111.341,254.165 109.684,252.428 106.901 C 250.946 104.527,249.161 102.989,246.087 101.439 C 242.642 99.701,239.510 97.568,237.740 95.754 C 231.415 89.268,214.454 86.232,192.200 87.600 M216.874 94.027 C 223.053 94.987,225.741 95.927,228.260 98.009 C 229.255 98.831,231.089 100.000,232.335 100.606 C 233.581 101.211,235.101 102.059,235.713 102.490 C 236.325 102.921,238.979 104.337,241.610 105.637 C 246.188 107.900,246.446 108.094,247.615 110.165 C 249.391 113.312,251.653 115.708,254.863 117.842 C 256.923 119.211,257.851 120.114,258.278 121.161 C 258.601 121.953,259.765 124.490,260.865 126.800 C 261.965 129.110,263.280 132.092,263.787 133.427 C 265.109 136.906,266.224 138.972,267.669 140.618 C 271.742 145.257,271.993 173.679,268.007 178.984 C 265.070 182.894,262.606 188.661,260.156 197.362 C 258.919 201.755,257.956 203.698,255.906 205.937 C 253.863 208.168,250.790 214.638,249.227 220.000 C 247.570 225.680,246.110 229.093,244.541 230.954 C 242.645 233.202,240.176 238.448,239.059 242.600 C 237.404 248.750,235.377 253.197,232.586 256.800 C 230.368 259.664,229.007 262.437,227.976 266.196 C 226.339 272.160,223.333 278.743,221.158 281.122 C 218.533 283.994,218.133 284.844,215.087 294.010 C 211.521 304.741,212.265 303.662,206.418 306.585 C 199.648 309.969,200.073 309.912,198.357 307.678 C 196.328 305.039,195.638 303.557,194.560 299.530 C 193.411 295.237,192.240 292.860,189.800 289.864 C 187.523 287.068,185.043 281.887,183.985 277.714 C 182.645 272.431,180.879 268.551,178.760 266.232 C 176.934 264.234,173.200 257.396,173.200 256.050 C 173.200 253.244,169.306 244.206,166.996 241.649 C 165.188 239.647,163.405 235.781,162.182 231.211 C 160.380 224.479,158.192 219.516,155.881 216.924 C 153.461 214.208,153.100 213.421,150.590 205.400 C 148.113 197.481,146.926 194.965,144.336 192.147 C 141.809 189.398,141.668 189.076,139.870 182.000 C 136.381 168.264,136.472 151.108,140.113 136.372 C 141.591 130.391,141.910 129.758,144.331 128.004 C 146.144 126.690,148.414 123.489,149.259 121.051 C 149.933 119.109,153.834 114.807,156.158 113.446 C 157.124 112.880,158.837 111.242,159.965 109.806 C 162.547 106.521,164.953 104.766,168.394 103.657 C 171.026 102.810,174.114 100.971,177.441 98.270 C 179.879 96.291,186.606 93.939,190.800 93.601 C 198.747 92.960,211.326 93.166,216.874 94.027 M196.915 128.357 C 195.589 129.214,194.241 130.292,193.918 130.753 C 193.595 131.214,191.398 132.496,189.034 133.602 C 183.951 135.982,180.949 138.561,179.364 141.912 C 178.791 143.123,177.184 145.326,175.793 146.807 C 171.597 151.275,171.200 152.399,171.200 159.811 C 171.200 167.293,171.797 169.041,175.673 172.905 C 176.954 174.182,178.555 176.323,179.232 177.664 C 181.516 182.187,183.524 183.841,190.546 186.983 C 192.277 187.757,194.384 189.015,195.228 189.778 C 196.073 190.541,197.501 191.542,198.403 192.001 L 200.041 192.837 205.121 192.001 C 210.900 191.050,212.146 190.648,213.114 189.422 C 213.717 188.657,219.186 185.002,223.200 182.681 C 231.638 177.801,236.208 161.646,232.246 150.700 C 229.090 141.979,227.926 140.411,221.400 136.081 C 218.540 134.183,215.170 131.656,213.912 130.465 L 211.623 128.300 206.712 127.568 C 199.875 126.550,199.688 126.565,196.915 128.357 M206.062 135.411 L 211.400 136.022 215.274 138.627 C 221.603 142.882,222.779 144.138,225.556 149.611 L 228.000 154.425 228.000 160.045 L 228.000 165.664 225.735 170.092 C 224.489 172.527,222.914 175.155,222.235 175.930 C 220.970 177.375,211.906 183.600,211.066 183.600 C 210.810 183.601,208.233 183.876,205.340 184.213 L 200.080 184.825 197.940 183.879 C 196.763 183.358,194.079 182.359,191.976 181.658 C 187.469 180.157,185.388 178.369,183.994 174.800 C 182.884 171.959,180.784 168.512,179.241 166.996 L 178.022 165.800 178.011 160.061 L 178.000 154.323 179.640 152.461 C 180.543 151.438,182.166 148.789,183.247 146.576 C 185.726 141.505,187.512 139.726,191.400 138.454 C 192.940 137.950,195.460 136.937,197.000 136.203 C 200.371 134.597,199.564 134.667,206.062 135.411 " stroke="none" fill="#74ac7c" fillRule="evenodd"></path></g></svg>