<svg width="33" height="32" viewBox="0 0 33 32" fill="none" xmlns="http://www.w3.org/2000/svg">
<g id="Icon / 02">
<path id="Vector" d="M13.3163 8.85514H17.6176M13.3163 13.771H21.3045M13.3163 18.6868H21.3045" stroke="#99B2C6" strokeWidth="1.2" strokeLinecap="round" strokeLinejoin="round"/>
<path id="Union" fillRule="evenodd" clipRule="evenodd" d="M27.9554 19.7465C28.0637 18.6818 28.0637 17.3485 28.0637 15.6658L28.0637 12.1959C28.0639 10.908 28.0641 10.0774 27.84 9.29137C27.7172 8.86042 27.5452 8.44505 27.3273 8.05346C26.9299 7.33919 26.3425 6.75201 25.4316 5.84152L25.24 5.64986C24.3295 4.739 23.7423 4.15158 23.028 3.75418C22.6364 3.53632 22.2211 3.36427 21.7901 3.24143C21.004 3.01736 20.1735 3.01753 18.8856 3.01779L17.3102 3.01781V3.02048C16.1608 3.02737 15.1932 3.05207 14.3767 3.14053C13.2151 3.26638 12.2505 3.53008 11.4211 4.13269C10.9255 4.49275 10.4897 4.92857 10.1296 5.42414C9.74587 5.95233 9.49956 6.53535 9.33876 7.18915L8.33117 7.45913C5.21702 8.29357 3.36895 11.4945 4.20338 14.6087L6.90705 24.6989C7.74148 27.8131 10.9424 29.6611 14.0566 28.8267L21.1791 26.9182C22.5394 26.5537 23.6581 25.7377 24.4172 24.6746C24.7905 24.5444 25.1397 24.3756 25.4693 24.1553C26.1067 23.7294 26.654 23.1822 27.0798 22.5448C27.6121 21.7481 27.8444 20.8374 27.9554 19.7465ZM18.9003 4.86129L18.7501 4.86126C16.9046 4.86128 15.5909 4.86321 14.5753 4.97325C13.5705 5.08211 12.9674 5.28783 12.5046 5.62407C12.1655 5.87042 11.8674 6.16861 11.621 6.50769C11.2848 6.97049 11.079 7.57361 10.9702 8.57837C10.8594 9.60038 10.8582 10.9242 10.8582 12.7881V15.6147C10.8582 17.3599 10.8593 18.5994 10.957 19.56C11.0532 20.5051 11.2351 21.0773 11.5313 21.5206C11.8227 21.9567 12.1972 22.3312 12.6333 22.6226C13.0765 22.9187 13.6488 23.1007 14.5939 23.1969C15.5545 23.2946 16.794 23.2957 18.5392 23.2957C20.2844 23.2957 21.5239 23.2946 22.4845 23.1969C23.4296 23.1007 24.0019 22.9187 24.4451 22.6226C24.8812 22.3312 25.2557 21.9567 25.5471 21.5206C25.8433 21.0773 26.0252 20.5051 26.1214 19.56C26.2191 18.5994 26.2202 17.3599 26.2202 15.6147V12.5423C26.2202 11.9369 26.2183 11.5756 26.1834 11.3166C26.1675 11.1979 26.1487 11.1385 26.1377 11.1117C26.1351 11.1055 26.1331 11.1014 26.1319 11.0991L26.1302 11.0961L26.1272 11.0944C26.1248 11.0931 26.1208 11.0912 26.1146 11.0886C26.0878 11.0776 26.0284 11.0588 25.9097 11.0428C25.6507 11.008 25.2894 11.0061 24.684 11.0061L23.4001 11.0061C22.8681 11.0061 22.3805 11.0062 21.9837 10.9529C21.5469 10.8941 21.0851 10.7559 20.7053 10.3761C20.3255 9.99637 20.1874 9.53462 20.1286 9.09774C20.0753 8.70102 20.0753 8.21333 20.0754 7.68142L20.0754 6.15167C20.0754 5.67031 20.0741 5.38333 20.0514 5.1737C20.0381 5.0504 20.0211 4.99988 20.0148 4.98523C19.9969 4.96114 19.9755 4.9398 19.9514 4.9219C19.9368 4.91559 19.8863 4.89859 19.763 4.88523C19.5706 4.8644 19.3132 4.86161 18.9003 4.86129ZM20.7373 25.128C20.0931 25.1392 19.3802 25.1391 18.5903 25.1391H18.4881C16.8054 25.1392 15.4721 25.1392 14.4074 25.0308C13.3165 24.9199 12.4058 24.6876 11.6091 24.1553C10.9717 23.7294 10.4245 23.1822 9.99855 22.5448C9.46625 21.7481 9.234 20.8374 9.12303 19.7465C9.01472 18.6818 9.01473 17.3485 9.01474 15.6658V12.7334C9.01473 11.3309 9.01472 10.1558 9.07307 9.16882L8.80829 9.23976C6.67755 9.81069 5.41308 12.0008 5.98401 14.1316L8.68768 24.2218C9.25861 26.3525 11.4487 27.617 13.5795 27.0461L20.702 25.1376C20.7138 25.1344 20.7256 25.1312 20.7373 25.128ZM25.7164 8.94971C25.7592 9.02675 25.7995 9.10513 25.8371 9.18472C25.5087 9.16253 25.1362 9.16257 24.739 9.16262L23.4551 9.16263C22.8497 9.16263 22.4883 9.16067 22.2294 9.12585C22.1107 9.1099 22.0513 9.0911 22.0245 9.08009C22.0183 9.07754 22.0142 9.07555 22.0118 9.07431L22.0089 9.07262L22.0072 9.06963C22.0059 9.06725 22.0039 9.06318 22.0014 9.05698C21.9904 9.03021 21.9716 8.97078 21.9556 8.85211C21.9208 8.59314 21.9188 8.23182 21.9188 7.62642L21.9189 6.10829C21.9189 5.7988 21.9189 5.5079 21.9053 5.24841C21.982 5.28486 22.0575 5.32377 22.1318 5.36509C22.5933 5.62188 22.9929 6.00987 24.0323 7.04922C25.0716 8.08856 25.4596 8.48816 25.7164 8.94971Z" fill="#99B2C6"/>
</g>
</svg>
