<?xml version="1.0" encoding="UTF-8"?>
<!DOCTYPE svg PUBLIC "-//W3C//DTD SVG 1.1//EN" "http://www.w3.org/Graphics/SVG/1.1/DTD/svg11.dtd">
<svg xmlns="http://www.w3.org/2000/svg" version="1.1" width="200px" height="200px" style="shape-rendering:geometricPrecision; text-rendering:geometricPrecision; image-rendering:optimizeQuality; fillRule:evenodd; clipRule:evenodd" xmlns:xlink="http://www.w3.org/1999/xlink">
<g><path style="opacity:0.974" fill="gray"  d="M 103.5,6.5 C 103.5,21.5 103.5,36.5 103.5,51.5C 102.027,52.7401 100.36,53.7401 98.5,54.5C 95.3116,53.0748 92.3116,51.4081 89.5,49.5C 89.5,36.1667 89.5,22.8333 89.5,9.5C 92.2624,7.27534 95.2624,5.27534 98.5,3.5C 100.029,4.76294 101.695,5.76294 103.5,6.5 Z"/></g>
<g><path style="opacity:0.971" fill="gray"  d="M 103.5,6.5 C 107.372,8.59743 111.039,10.9308 114.5,13.5C 113.506,23.9869 113.172,34.6536 113.5,45.5C 110.534,47.9884 107.201,49.9884 103.5,51.5C 103.5,36.5 103.5,21.5 103.5,6.5 Z"/></g>
<g><path style="opacity:0.969" fill="gray"  d="M 89.5,9.5 C 89.5,22.8333 89.5,36.1667 89.5,49.5C 86.3388,48.0869 83.3388,46.4203 80.5,44.5C 80.5,34.5 80.5,24.5 80.5,14.5C 83.2402,12.4405 86.2402,10.7738 89.5,9.5 Z"/></g>
<g><path style="opacity:0.964" fill="gray"  d="M 114.5,13.5 C 116.784,13.9752 118.784,14.9752 120.5,16.5C 120.5,24.8333 120.5,33.1667 120.5,41.5C 118.664,43.588 116.331,44.9213 113.5,45.5C 113.172,34.6536 113.506,23.9869 114.5,13.5 Z"/></g>
<g><path style="opacity:0.952" fill="gray"  d="M 80.5,14.5 C 80.5,24.5 80.5,34.5 80.5,44.5C 79.1667,43.8333 77.8333,43.1667 76.5,42.5C 77.8333,33.8333 77.8333,25.1667 76.5,16.5C 77.6049,15.3995 78.9382,14.7329 80.5,14.5 Z"/></g>
<g><path style="opacity:0.934" fill="gray"  d="M 76.5,16.5 C 77.8333,25.1667 77.8333,33.8333 76.5,42.5C 71.2985,39.737 66.2985,36.737 61.5,33.5C 61.5,30.8333 61.5,28.1667 61.5,25.5C 66.2985,22.263 71.2985,19.263 76.5,16.5 Z"/></g>
<g><path style="opacity:0.955" fill="gray"  d="M 120.5,16.5 C 121.833,17.1667 123.167,17.8333 124.5,18.5C 124.5,25.5 124.5,32.5 124.5,39.5C 123.486,40.6737 122.153,41.3404 120.5,41.5C 120.5,33.1667 120.5,24.8333 120.5,16.5 Z"/></g>
<g><path style="opacity:0.93" fill="gray"  d="M 124.5,18.5 C 127.709,20.2651 130.709,22.2651 133.5,24.5C 133.5,27.8333 133.5,31.1667 133.5,34.5C 130.76,36.5595 127.76,38.2262 124.5,39.5C 124.5,32.5 124.5,25.5 124.5,18.5 Z"/></g>
<g><path style="opacity:0.887" fill="gray"  d="M 133.5,24.5 C 134.492,24.3284 135.158,24.6618 135.5,25.5C 135.5,28.1667 135.5,30.8333 135.5,33.5C 135.158,34.3382 134.492,34.6716 133.5,34.5C 133.5,31.1667 133.5,27.8333 133.5,24.5 Z"/></g>
<g><path style="opacity:0.757" fill="gray"  d="M 61.5,25.5 C 61.5,28.1667 61.5,30.8333 61.5,33.5C 52.2009,30.8933 52.2009,28.2266 61.5,25.5 Z"/></g>
<g><path style="opacity:0.817" fill="gray"  d="M 135.5,25.5 C 137.434,26.1103 139.101,27.1103 140.5,28.5C 139.596,29.209 139.263,30.209 139.5,31.5C 138.395,32.6005 137.062,33.2671 135.5,33.5C 135.5,30.8333 135.5,28.1667 135.5,25.5 Z"/></g>
<g><path style="opacity:0.589" fill="gray"  d="M 140.5,28.5 C 142.838,29.6247 142.505,30.6247 139.5,31.5C 139.263,30.209 139.596,29.209 140.5,28.5 Z"/></g>
<g><path style="opacity:0.955" fill="gray"  d="M 62.5,39.5 C 62.5,56.8333 62.5,74.1667 62.5,91.5C 59.1944,89.5113 55.8611,87.5113 52.5,85.5C 51.3337,68.1763 51.167,50.8429 52,33.5C 55.3884,35.7277 58.8884,37.7277 62.5,39.5 Z"/></g>
<g><path style="opacity:0.981" fill="gray"  d="M 141.5,86.5 C 141.5,69.5 141.5,52.5 141.5,35.5C 142.721,34.9717 143.887,34.305 145,33.5C 145.833,50.8429 145.666,68.1763 144.5,85.5C 143.583,86.1272 142.583,86.4606 141.5,86.5 Z"/></g>
<g><path style="opacity:0.976" fill="gray"  d="M 141.5,35.5 C 141.5,52.5 141.5,69.5 141.5,86.5C 140.341,88.2503 138.674,89.2503 136.5,89.5C 136.5,72.5 136.5,55.5 136.5,38.5C 137.965,37.2632 139.632,36.2632 141.5,35.5 Z"/></g>
<g><path style="opacity:0.973" fill="gray"  d="M 136.5,38.5 C 136.5,55.5 136.5,72.5 136.5,89.5C 135.564,90.9744 134.23,91.9744 132.5,92.5C 132.83,75.3251 132.497,58.3251 131.5,41.5C 132.965,40.2632 134.632,39.2632 136.5,38.5 Z"/></g>
<g><path style="opacity:0.979" fill="gray"  d="M 62.5,39.5 C 64.7952,40.4746 66.7952,41.8079 68.5,43.5C 68.5,60.5 68.5,77.5 68.5,94.5C 66.5,93.5 64.5,92.5 62.5,91.5C 62.5,74.1667 62.5,56.8333 62.5,39.5 Z"/></g>
<g><path style="opacity:0.978" fill="gray"  d="M 131.5,41.5 C 132.497,58.3251 132.83,75.3251 132.5,92.5C 130.483,93.5294 128.483,94.5294 126.5,95.5C 126.5,78.5 126.5,61.5 126.5,44.5C 127.659,42.7497 129.326,41.7497 131.5,41.5 Z"/></g>
<g><path style="opacity:0.977" fill="gray"  d="M 68.5,43.5 C 70.2838,43.8925 71.9505,44.5592 73.5,45.5C 73.5,62.8333 73.5,80.1667 73.5,97.5C 71.6316,96.7368 69.9649,95.7368 68.5,94.5C 68.5,77.5 68.5,60.5 68.5,43.5 Z"/></g>
<g><path style="opacity:0.978" fill="gray"  d="M 126.5,44.5 C 126.5,61.5 126.5,78.5 126.5,95.5C 125.035,96.7368 123.368,97.7368 121.5,98.5C 121.83,81.3251 121.497,64.3251 120.5,47.5C 122.181,45.9925 124.181,44.9925 126.5,44.5 Z"/></g>
<g><path style="opacity:0.979" fill="gray"  d="M 73.5,45.5 C 74.8717,46.5116 76.205,47.5116 77.5,48.5C 77.5,65.5 77.5,82.5 77.5,99.5C 75.9382,99.2671 74.6049,98.6005 73.5,97.5C 73.5,80.1667 73.5,62.8333 73.5,45.5 Z"/></g>
<g><path style="opacity:0.981" fill="gray"  d="M 120.5,47.5 C 121.497,64.3251 121.83,81.3251 121.5,98.5C 121.158,99.3382 120.492,99.6716 119.5,99.5C 118.503,82.6749 118.17,65.6749 118.5,48.5C 118.842,47.6618 119.508,47.3284 120.5,47.5 Z"/></g>
<g><path style="opacity:0.98" fill="gray"  d="M 77.5,48.5 C 78.609,48.5569 79.609,48.8902 80.5,49.5C 80.5,66.8333 80.5,84.1667 80.5,101.5C 79.2905,101.068 78.2905,100.401 77.5,99.5C 77.5,82.5 77.5,65.5 77.5,48.5 Z"/></g>
<g><path style="opacity:0.98" fill="gray"  d="M 118.5,48.5 C 118.17,65.6749 118.503,82.6749 119.5,99.5C 117.337,101.083 115.004,102.416 112.5,103.5C 111.503,86.6749 111.17,69.6749 111.5,52.5C 113.635,50.9291 115.968,49.5957 118.5,48.5 Z"/></g>
<g><path style="opacity:0.976" fill="gray"  d="M 80.5,49.5 C 82.7952,50.4746 84.7952,51.8079 86.5,53.5C 86.8184,70.577 86.4851,87.577 85.5,104.5C 83.6316,103.737 81.9649,102.737 80.5,101.5C 80.5,84.1667 80.5,66.8333 80.5,49.5 Z"/></g>
<g><path style="opacity:0.973" fill="gray"  d="M 110.5,52.5 C 110.5,69.8333 110.5,87.1667 110.5,104.5C 109.564,105.974 108.23,106.974 106.5,107.5C 106.819,90.0898 106.485,72.7564 105.5,55.5C 107.332,54.7515 108.999,53.7515 110.5,52.5 Z"/></g>
<g><path style="opacity:0.971" fill="gray"  d="M 110.5,52.5 C 110.833,52.5 111.167,52.5 111.5,52.5C 111.17,69.6749 111.503,86.6749 112.5,103.5C 112.158,104.338 111.492,104.672 110.5,104.5C 110.5,87.1667 110.5,69.8333 110.5,52.5 Z"/></g>
<g><path style="opacity:0.973" fill="gray"  d="M 86.5,53.5 C 87.4916,53.3284 88.1583,53.6618 88.5,54.5C 88.5,71.8333 88.5,89.1667 88.5,106.5C 87.5,105.833 86.5,105.167 85.5,104.5C 86.4851,87.577 86.8184,70.577 86.5,53.5 Z"/></g>
<g><path style="opacity:0.974" fill="gray"  d="M 88.5,54.5 C 89.4916,54.3284 90.1583,54.6618 90.5,55.5C 90.5,72.8333 90.5,90.1667 90.5,107.5C 89.8333,107.167 89.1667,106.833 88.5,106.5C 88.5,89.1667 88.5,71.8333 88.5,54.5 Z"/></g>
<g><path style="opacity:0.966" fill="gray"  d="M 90.5,55.5 C 92.0443,55.7031 93.3777,56.3698 94.5,57.5C 95.6663,75.1572 95.833,92.8239 95,110.5C 93.7292,109.117 92.2292,108.117 90.5,107.5C 90.5,90.1667 90.5,72.8333 90.5,55.5 Z"/></g>
<g><path style="opacity:0.981" fill="gray"  d="M 105.5,55.5 C 106.485,72.7564 106.819,90.0898 106.5,107.5C 105.167,108.167 103.833,108.833 102.5,109.5C 102.5,92.1667 102.5,74.8333 102.5,57.5C 103.29,56.5987 104.29,55.9321 105.5,55.5 Z"/></g>
<g><path style="opacity:0.855" fill="gray"  d="M 102.5,57.5 C 102.5,74.8333 102.5,92.1667 102.5,109.5C 101.745,94.1617 101.078,78.6617 100.5,63C 100.547,60.7047 101.213,58.8714 102.5,57.5 Z"/></g>
<g><path style="opacity:0.975" fill="gray"  d="M 53.5,91.5 C 53.5,106.5 53.5,121.5 53.5,136.5C 52.063,137.725 50.3964,138.725 48.5,139.5C 45.6339,137.568 42.6339,135.901 39.5,134.5C 40.8213,121.069 40.8213,107.735 39.5,94.5C 42.4931,92.3631 45.6598,90.3631 49,88.5C 50.6147,89.3862 52.1147,90.3862 53.5,91.5 Z"/></g>
<g><path style="opacity:0.974" fill="gray"  d="M 153.5,91.5 C 153.5,106.5 153.5,121.5 153.5,136.5C 152.166,137.652 150.666,138.652 149,139.5C 146.037,137.94 143.204,136.273 140.5,134.5C 140.5,120.833 140.5,107.167 140.5,93.5C 143.553,92.2231 146.386,90.5564 149,88.5C 150.652,89.3994 152.152,90.3994 153.5,91.5 Z"/></g>
<g><path style="opacity:0.97" fill="gray"  d="M 53.5,91.5 C 57.1667,93.5 60.8333,95.5 64.5,97.5C 64.5,108.5 64.5,119.5 64.5,130.5C 61.0012,132.75 57.3346,134.75 53.5,136.5C 53.5,121.5 53.5,106.5 53.5,91.5 Z"/></g>
<g><path style="opacity:0.971" fill="gray"  d="M 153.5,91.5 C 157.327,93.246 160.993,95.246 164.5,97.5C 164.5,108.5 164.5,119.5 164.5,130.5C 161.322,133.258 157.655,135.258 153.5,136.5C 153.5,121.5 153.5,106.5 153.5,91.5 Z"/></g>
<g><path style="opacity:0.963" fill="gray"  d="M 140.5,93.5 C 140.5,107.167 140.5,120.833 140.5,134.5C 137.193,132.847 133.86,131.18 130.5,129.5C 131.833,119.5 131.833,109.5 130.5,99.5C 133.833,97.5 137.167,95.5 140.5,93.5 Z"/></g>
<g><path style="opacity:0.97" fill="gray"  d="M 39.5,94.5 C 40.8213,107.735 40.8213,121.069 39.5,134.5C 36.6612,132.58 33.6612,130.913 30.5,129.5C 30.5,119.5 30.5,109.5 30.5,99.5C 33.331,97.5832 36.331,95.9166 39.5,94.5 Z"/></g>
<g><path style="opacity:0.962" fill="gray"  d="M 64.5,97.5 C 66.5368,98.8465 68.5368,100.18 70.5,101.5C 70.5,110.167 70.5,118.833 70.5,127.5C 68.5,128.5 66.5,129.5 64.5,130.5C 64.5,119.5 64.5,108.5 64.5,97.5 Z"/></g>
<g><path style="opacity:0.958" fill="gray"  d="M 164.5,97.5 C 166.795,98.4746 168.795,99.8079 170.5,101.5C 170.174,110.017 170.507,118.35 171.5,126.5C 169.337,128.083 167.004,129.416 164.5,130.5C 164.5,119.5 164.5,108.5 164.5,97.5 Z"/></g>
<g><path style="opacity:0.954" fill="gray"  d="M 30.5,99.5 C 30.5,109.5 30.5,119.5 30.5,129.5C 29.2905,129.068 28.2905,128.401 27.5,127.5C 27.5,118.833 27.5,110.167 27.5,101.5C 28.2905,100.599 29.2905,99.9321 30.5,99.5 Z"/></g>
<g><path style="opacity:0.965" fill="gray"  d="M 130.5,99.5 C 131.833,109.5 131.833,119.5 130.5,129.5C 129.5,128.833 128.5,128.167 127.5,127.5C 127.5,118.833 127.5,110.167 127.5,101.5C 128.29,100.599 129.29,99.9321 130.5,99.5 Z"/></g>
<g><path style="opacity:0.932" fill="gray"  d="M 27.5,101.5 C 27.5,110.167 27.5,118.833 27.5,127.5C 21.8076,124.991 16.4743,121.991 11.5,118.5C 11.5,115.833 11.5,113.167 11.5,110.5C 16.5016,106.997 21.835,103.997 27.5,101.5 Z"/></g>
<g><path style="opacity:0.952" fill="gray"  d="M 70.5,101.5 C 71.8333,102.167 73.1667,102.833 74.5,103.5C 74.5,110.5 74.5,117.5 74.5,124.5C 73.5637,125.974 72.2303,126.974 70.5,127.5C 70.5,118.833 70.5,110.167 70.5,101.5 Z"/></g>
<g><path style="opacity:0.935" fill="gray"  d="M 127.5,101.5 C 127.5,110.167 127.5,118.833 127.5,127.5C 122.167,124.5 116.833,121.5 111.5,118.5C 112.833,115.833 112.833,113.167 111.5,110.5C 116.833,107.5 122.167,104.5 127.5,101.5 Z"/></g>
<g><path style="opacity:0.944" fill="gray"  d="M 170.5,101.5 C 172.153,101.66 173.486,102.326 174.5,103.5C 174.175,110.687 174.509,117.687 175.5,124.5C 174.486,125.674 173.153,126.34 171.5,126.5C 170.507,118.35 170.174,110.017 170.5,101.5 Z"/></g>
<g><path style="opacity:0.924" fill="gray"  d="M 74.5,103.5 C 77.8691,105.515 81.2024,107.515 84.5,109.5C 83.5206,112.625 83.1872,115.958 83.5,119.5C 80.9922,121.924 77.9922,123.59 74.5,124.5C 74.5,117.5 74.5,110.5 74.5,103.5 Z"/></g>
<g><path style="opacity:0.936" fill="gray"  d="M 174.5,103.5 C 178.118,105.137 181.451,107.137 184.5,109.5C 184.5,112.833 184.5,116.167 184.5,119.5C 181.696,121.405 178.696,123.071 175.5,124.5C 174.509,117.687 174.175,110.687 174.5,103.5 Z"/></g>
<g><path style="opacity:0.929" fill="gray"  d="M 84.5,109.5 C 85.1667,109.833 85.8333,110.167 86.5,110.5C 86.5,113.167 86.5,115.833 86.5,118.5C 85.609,119.11 84.609,119.443 83.5,119.5C 83.1872,115.958 83.5206,112.625 84.5,109.5 Z"/></g>
<g><path style="opacity:0.891" fill="gray"  d="M 184.5,109.5 C 185.492,109.328 186.158,109.662 186.5,110.5C 186.5,113.167 186.5,115.833 186.5,118.5C 185.833,118.833 185.167,119.167 184.5,119.5C 184.5,116.167 184.5,112.833 184.5,109.5 Z"/></g>
<g><path style="opacity:0.739" fill="gray"  d="M 11.5,110.5 C 11.5,113.167 11.5,115.833 11.5,118.5C 9.0587,117.443 6.72537,116.11 4.5,114.5C 6.69793,112.902 9.03126,111.569 11.5,110.5 Z"/></g>
<g><path style="opacity:0.787" fill="gray"  d="M 86.5,110.5 C 94.5,113.167 94.5,115.833 86.5,118.5C 86.5,115.833 86.5,113.167 86.5,110.5 Z"/></g>
<g><path style="opacity:0.787" fill="gray"  d="M 111.5,110.5 C 112.833,113.167 112.833,115.833 111.5,118.5C 103.5,115.833 103.5,113.167 111.5,110.5 Z"/></g>
<g><path style="opacity:0.844" fill="gray"  d="M 186.5,110.5 C 187.833,111.167 189.167,111.833 190.5,112.5C 190.5,113.833 190.5,115.167 190.5,116.5C 189.167,117.167 187.833,117.833 186.5,118.5C 186.5,115.833 186.5,113.167 186.5,110.5 Z"/></g>
<g><path style="opacity:0.43" fill="gray"  d="M 190.5,112.5 C 194.5,113.833 194.5,115.167 190.5,116.5C 190.5,115.167 190.5,113.833 190.5,112.5 Z"/></g>
<g><path style="opacity:0.917" fill="gray"  d="M 13.5,125.5 C 13.8298,142.342 13.4965,159.008 12.5,175.5C 9.20026,173.892 5.86693,172.225 2.5,170.5C 1.16667,153.167 1.16667,135.833 2.5,118.5C 6.40053,120.608 10.0672,122.941 13.5,125.5 Z"/></g>
<g><path style="opacity:0.249" fill="gray"  d="M 94.5,119.5 C 94.56,118.957 94.8933,118.624 95.5,118.5C 96.827,135.662 96.827,152.662 95.5,169.5C 95.8298,152.658 95.4965,135.992 94.5,119.5 Z"/></g>
<g><path style="opacity:0.976" fill="gray"  d="M 113.5,124.5 C 113.5,141.833 113.5,159.167 113.5,176.5C 110.109,174.385 106.609,172.385 103,170.5C 102.333,153.167 102.333,135.833 103,118.5C 106.283,120.891 109.783,122.891 113.5,124.5 Z"/></g>
<g><path style="opacity:0.97" fill="gray"  d="M 192.5,171.5 C 192.83,154.658 192.497,137.992 191.5,121.5C 192.406,120.035 193.739,119.035 195.5,118.5C 196.833,135.833 196.833,153.167 195.5,170.5C 194.583,171.127 193.583,171.461 192.5,171.5 Z"/></g>
<g><path style="opacity:0.981" fill="gray"  d="M 94.5,119.5 C 95.4965,135.992 95.8298,152.658 95.5,169.5C 95.0269,170.906 94.0269,171.573 92.5,171.5C 91.5034,154.675 91.1701,137.675 91.5,120.5C 92.391,119.89 93.391,119.557 94.5,119.5 Z"/></g>
<g><path style="opacity:0.976" fill="gray"  d="M 91.5,120.5 C 91.1701,137.675 91.5034,154.675 92.5,171.5C 91.0351,172.737 89.3684,173.737 87.5,174.5C 86.5034,157.675 86.1701,140.675 86.5,123.5C 88.0009,122.248 89.6675,121.248 91.5,120.5 Z"/></g>
<g><path style="opacity:0.98" fill="gray"  d="M 191.5,121.5 C 192.497,137.992 192.83,154.658 192.5,171.5C 191.101,172.89 189.434,173.89 187.5,174.5C 187.818,157.423 187.485,140.423 186.5,123.5C 188.05,122.559 189.716,121.893 191.5,121.5 Z"/></g>
<g><path style="opacity:0.969" fill="gray"  d="M 86.5,123.5 C 86.1701,140.675 86.5034,157.675 87.5,174.5C 86.0351,175.737 84.3684,176.737 82.5,177.5C 82.8299,160.325 82.4966,143.325 81.5,126.5C 82.9649,125.263 84.6316,124.263 86.5,123.5 Z"/></g>
<g><path style="opacity:0.979" fill="gray"  d="M 186.5,123.5 C 187.485,140.423 187.818,157.423 187.5,174.5C 186.035,175.737 184.368,176.737 182.5,177.5C 182.5,160.5 182.5,143.5 182.5,126.5C 183.436,125.026 184.77,124.026 186.5,123.5 Z"/></g>
<g><path style="opacity:0.98" fill="gray"  d="M 113.5,124.5 C 115.537,125.846 117.537,127.18 119.5,128.5C 119.818,145.577 119.485,162.577 118.5,179.5C 116.999,178.248 115.332,177.248 113.5,176.5C 113.5,159.167 113.5,141.833 113.5,124.5 Z"/></g>
<g><path style="opacity:0.973" fill="gray"  d="M 13.5,125.5 C 15.8185,125.992 17.8185,126.992 19.5,128.5C 18.5034,145.325 18.1701,162.325 18.5,179.5C 16.2048,178.525 14.2048,177.192 12.5,175.5C 13.4965,159.008 13.8298,142.342 13.5,125.5 Z"/></g>
<g><path style="opacity:0.979" fill="gray"  d="M 81.5,126.5 C 82.4966,143.325 82.8299,160.325 82.5,177.5C 80.9991,178.752 79.3325,179.752 77.5,180.5C 77.5,163.167 77.5,145.833 77.5,128.5C 78.6049,127.4 79.9382,126.733 81.5,126.5 Z"/></g>
<g><path style="opacity:0.979" fill="gray"  d="M 182.5,126.5 C 182.5,143.5 182.5,160.5 182.5,177.5C 181.035,178.737 179.368,179.737 177.5,180.5C 177.5,163.167 177.5,145.833 177.5,128.5C 179.05,127.559 180.716,126.893 182.5,126.5 Z"/></g>
<g><path style="opacity:0.981" fill="gray"  d="M 19.5,128.5 C 21.3684,129.263 23.0351,130.263 24.5,131.5C 24.8184,148.577 24.4851,165.577 23.5,182.5C 21.6675,181.752 20.0009,180.752 18.5,179.5C 18.1701,162.325 18.5034,145.325 19.5,128.5 Z"/></g>
<g><path style="opacity:0.979" fill="gray"  d="M 77.5,128.5 C 77.5,145.833 77.5,163.167 77.5,180.5C 75.4832,181.529 73.4832,182.529 71.5,183.5C 71.5,166.167 71.5,148.833 71.5,131.5C 73.5,130.5 75.5,129.5 77.5,128.5 Z"/></g>
<g><path style="opacity:0.973" fill="gray"  d="M 119.5,128.5 C 121.674,128.75 123.341,129.75 124.5,131.5C 124.5,148.5 124.5,165.5 124.5,182.5C 122.517,181.529 120.517,180.529 118.5,179.5C 119.485,162.577 119.818,145.577 119.5,128.5 Z"/></g>
<g><path style="opacity:0.979" fill="gray"  d="M 177.5,128.5 C 177.5,145.833 177.5,163.167 177.5,180.5C 175.784,182.025 173.784,183.025 171.5,183.5C 171.5,166.5 171.5,149.5 171.5,132.5C 173.205,130.808 175.205,129.475 177.5,128.5 Z"/></g>
<g><path style="opacity:0.978" fill="gray"  d="M 24.5,131.5 C 26.153,131.66 27.4863,132.326 28.5,133.5C 28.8184,150.577 28.4851,167.577 27.5,184.5C 26.1667,183.833 24.8333,183.167 23.5,182.5C 24.4851,165.577 24.8184,148.577 24.5,131.5 Z"/></g>
<g><path style="opacity:0.972" fill="gray"  d="M 71.5,131.5 C 71.5,148.833 71.5,166.167 71.5,183.5C 71.1583,184.338 70.4916,184.672 69.5,184.5C 69.8184,167.423 69.4851,150.423 68.5,133.5C 69.5,132.833 70.5,132.167 71.5,131.5 Z"/></g>
<g><path style="opacity:0.979" fill="gray"  d="M 124.5,131.5 C 126.153,131.66 127.486,132.326 128.5,133.5C 128.5,150.5 128.5,167.5 128.5,184.5C 126.847,184.34 125.514,183.674 124.5,182.5C 124.5,165.5 124.5,148.5 124.5,131.5 Z"/></g>
<g><path style="opacity:0.974" fill="gray"  d="M 171.5,132.5 C 171.5,149.5 171.5,166.5 171.5,183.5C 171.167,184.5 170.5,185.167 169.5,185.5C 169.5,168.167 169.5,150.833 169.5,133.5C 169.842,132.662 170.508,132.328 171.5,132.5 Z"/></g>
<g><path style="opacity:0.965" fill="gray"  d="M 28.5,133.5 C 29.7095,133.932 30.7095,134.599 31.5,135.5C 30.5034,152.325 30.1701,169.325 30.5,186.5C 29.2905,186.068 28.2905,185.401 27.5,184.5C 28.4851,167.577 28.8184,150.577 28.5,133.5 Z"/></g>
<g><path style="opacity:0.978" fill="gray"  d="M 68.5,133.5 C 69.4851,150.423 69.8184,167.423 69.5,184.5C 67.6644,186.588 65.3311,187.921 62.5,188.5C 62.5,171.5 62.5,154.5 62.5,137.5C 64.1184,135.684 66.1184,134.351 68.5,133.5 Z"/></g>
<g><path style="opacity:0.977" fill="gray"  d="M 128.5,133.5 C 130.027,133.427 131.027,134.094 131.5,135.5C 131.818,152.577 131.485,169.577 130.5,186.5C 129.5,186.167 128.833,185.5 128.5,184.5C 128.5,167.5 128.5,150.5 128.5,133.5 Z"/></g>
<g><path style="opacity:0.977" fill="gray"  d="M 169.5,133.5 C 169.5,150.833 169.5,168.167 169.5,185.5C 167.004,186.58 164.67,187.914 162.5,189.5C 162.5,172.167 162.5,154.833 162.5,137.5C 164.336,135.412 166.669,134.079 169.5,133.5 Z"/></g>
<g><path style="opacity:0.981" fill="gray"  d="M 31.5,135.5 C 33.2838,135.893 34.9505,136.559 36.5,137.5C 36.5,154.833 36.5,172.167 36.5,189.5C 34.5168,188.529 32.5168,187.529 30.5,186.5C 30.1701,169.325 30.5034,152.325 31.5,135.5 Z"/></g>
<g><path style="opacity:0.98" fill="gray"  d="M 131.5,135.5 C 133.284,135.893 134.95,136.559 136.5,137.5C 136.5,154.833 136.5,172.167 136.5,189.5C 134.5,188.5 132.5,187.5 130.5,186.5C 131.485,169.577 131.818,152.577 131.5,135.5 Z"/></g>
<g><path style="opacity:0.974" fill="gray"  d="M 36.5,137.5 C 37.5,137.833 38.1667,138.5 38.5,139.5C 38.5,156.5 38.5,173.5 38.5,190.5C 37.5084,190.672 36.8417,190.338 36.5,189.5C 36.5,172.167 36.5,154.833 36.5,137.5 Z"/></g>
<g><path style="opacity:0.986" fill="gray"  d="M 62.5,137.5 C 62.5,154.5 62.5,171.5 62.5,188.5C 62.5,189.167 62.1667,189.5 61.5,189.5C 60.5034,172.675 60.1701,155.675 60.5,138.5C 60.8417,137.662 61.5084,137.328 62.5,137.5 Z"/></g>
<g><path style="opacity:0.976" fill="gray"  d="M 136.5,137.5 C 137.71,137.932 138.71,138.599 139.5,139.5C 139.83,156.675 139.497,173.675 138.5,190.5C 137.508,190.672 136.842,190.338 136.5,189.5C 136.5,172.167 136.5,154.833 136.5,137.5 Z"/></g>
<g><path style="opacity:0.973" fill="gray"  d="M 160.5,138.5 C 160.842,137.662 161.508,137.328 162.5,137.5C 162.5,154.833 162.5,172.167 162.5,189.5C 162.167,189.5 161.833,189.5 161.5,189.5C 161.83,172.325 161.497,155.325 160.5,138.5 Z"/></g>
<g><path style="opacity:0.974" fill="gray"  d="M 60.5,138.5 C 60.1701,155.675 60.5034,172.675 61.5,189.5C 60.0351,190.737 58.3684,191.737 56.5,192.5C 56.5,175.167 56.5,157.833 56.5,140.5C 57.5137,139.326 58.847,138.66 60.5,138.5 Z"/></g>
<g><path style="opacity:0.98" fill="gray"  d="M 160.5,138.5 C 161.497,155.325 161.83,172.325 161.5,189.5C 160.035,190.737 158.368,191.737 156.5,192.5C 156.5,175.167 156.5,157.833 156.5,140.5C 157.514,139.326 158.847,138.66 160.5,138.5 Z"/></g>
<g><path style="opacity:0.984" fill="gray"  d="M 38.5,139.5 C 39.609,139.557 40.609,139.89 41.5,140.5C 41.5,157.833 41.5,175.167 41.5,192.5C 40.2905,192.068 39.2905,191.401 38.5,190.5C 38.5,173.5 38.5,156.5 38.5,139.5 Z"/></g>
<g><path style="opacity:0.976" fill="gray"  d="M 139.5,139.5 C 140.167,139.833 140.833,140.167 141.5,140.5C 141.5,157.833 141.5,175.167 141.5,192.5C 140.29,192.068 139.29,191.401 138.5,190.5C 139.497,173.675 139.83,156.675 139.5,139.5 Z"/></g>
<g><path style="opacity:0.836" fill="gray"  d="M 41.5,140.5 C 42.8068,141.153 44.1401,141.82 45.5,142.5C 46.6663,160.157 46.833,177.824 46,195.5C 44.3484,194.601 42.8484,193.601 41.5,192.5C 41.5,175.167 41.5,157.833 41.5,140.5 Z"/></g>
<g><path style="opacity:0.98" fill="gray"  d="M 56.5,140.5 C 56.5,157.833 56.5,175.167 56.5,192.5C 55.1805,193.942 53.5138,194.608 51.5,194.5C 51.1672,177.154 51.5005,159.821 52.5,142.5C 53.6223,141.37 54.9557,140.703 56.5,140.5 Z"/></g>
<g><path style="opacity:0.898" fill="gray"  d="M 141.5,140.5 C 142.807,141.153 144.14,141.82 145.5,142.5C 146.666,160.157 146.833,177.824 146,195.5C 144.385,194.614 142.885,193.614 141.5,192.5C 141.5,175.167 141.5,157.833 141.5,140.5 Z"/></g>
<g><path style="opacity:0.976" fill="gray"  d="M 156.5,140.5 C 156.5,157.833 156.5,175.167 156.5,192.5C 155.71,193.401 154.71,194.068 153.5,194.5C 153.819,177.09 153.485,159.756 152.5,142.5C 153.833,141.833 155.167,141.167 156.5,140.5 Z"/></g>
<g><path style="opacity:0.995" fill="gray"  d="M 152.5,142.5 C 153.485,159.756 153.819,177.09 153.5,194.5C 152.169,186.193 151.502,177.527 151.5,168.5C 151.5,159.66 151.834,150.993 152.5,142.5 Z"/></g>
</svg>
