<svg width="33" height="34" viewBox="0 0 33 34" fill="none" xmlns="http://www.w3.org/2000/svg">
<path fillRule="evenodd" clipRule="evenodd" d="M21.7234 18.727C21.9029 18.1838 22 17.6033 22 17C22 13.9624 19.5376 11.5 16.5 11.5C15.8967 11.5 15.3162 11.5971 14.773 11.7766L16.4964 13.5C16.4976 13.5 16.4988 13.5 16.5 13.5C18.433 13.5 20 15.067 20 17C20 17.0012 20 17.0024 20 17.0036L21.7234 18.727ZM13.6801 14.9263C13.2526 15.5067 13 16.2239 13 17C13 18.933 14.567 20.5 16.5 20.5C17.2761 20.5 17.9933 20.2474 18.5737 19.8198L19.9982 21.2444C19.0475 22.0288 17.8288 22.5 16.5 22.5C13.4624 22.5 11 20.0376 11 17C11 15.6712 11.4712 14.4525 12.2556 13.5018L13.6801 14.9263Z" fill="#99B2C6"/>
<path fillRule="evenodd" clipRule="evenodd" d="M25.3622 22.3657C26.9112 21.0261 28.1198 19.6274 28.8585 18.6953C28.8823 18.6653 28.9071 18.6343 28.9327 18.6025C29.2391 18.2212 29.6501 17.7098 29.6501 17C29.6501 16.2902 29.2391 15.7788 28.9327 15.3975L28.9325 15.3972C28.907 15.3655 28.8822 15.3346 28.8585 15.3047C27.9452 14.1523 26.3137 12.2868 24.2086 10.7013C22.114 9.12373 19.4525 7.75 16.5001 7.75C14.8391 7.75 13.2702 8.1848 11.8425 8.84608L13.3669 10.3705C14.3771 9.98068 15.4284 9.75 16.5001 9.75C18.8372 9.75 21.0777 10.8471 23.0054 12.2989C24.9225 13.7427 26.4336 15.465 27.291 16.5469C27.3895 16.6711 27.4638 16.7651 27.5256 16.8477C27.5777 16.9173 27.6105 16.9654 27.6319 17C27.6105 17.0346 27.5777 17.0827 27.5256 17.1523C27.4638 17.2349 27.3895 17.3289 27.291 17.4531C26.5789 18.3516 25.4159 19.6919 23.9439 20.9475L25.3622 22.3657ZM22.9346 24.1808L21.48 22.7263C19.9337 23.6393 18.2438 24.25 16.5001 24.25C14.163 24.25 11.9225 23.1529 9.99487 21.7011C8.07776 20.2573 6.56666 18.535 5.70918 17.4531C5.61078 17.3289 5.5364 17.2349 5.47462 17.1523C5.42257 17.0827 5.38971 17.0346 5.36834 17C5.38971 16.9654 5.42257 16.9173 5.47462 16.8477C5.5364 16.7651 5.61078 16.6711 5.70918 16.5469C6.56666 15.465 8.07776 13.7427 9.99487 12.2989C10.1965 12.147 10.4015 11.9991 10.6097 11.8559L9.17405 10.4203C9.0446 10.513 8.91711 10.6068 8.79166 10.7013C6.68652 12.2868 5.05505 14.1523 4.14178 15.3047C4.11795 15.3347 4.09309 15.3657 4.0675 15.3975C3.76109 15.7788 3.3501 16.2902 3.3501 17C3.3501 17.7098 3.76109 18.2212 4.0675 18.6025C4.09309 18.6343 4.11795 18.6653 4.14178 18.6953C5.05505 19.8476 6.68652 21.7132 8.79166 23.2987C10.8863 24.8763 13.5477 26.25 16.5001 26.25C18.8828 26.25 21.0759 25.3553 22.9346 24.1808Z" fill="#99B2C6"/>
<path d="M6.875 3.25L28.875 25.25" stroke="#99B2C6" strokeWidth="2"/>
</svg>
